<mxfile host="app.diagrams.net" modified="2023-06-05T23:55:32.638Z" agent="Mozilla/5.0 (Windows NT 10.0; Win64; x64) AppleWebKit/537.36 (KHTML, like Gecko) Chrome/112.0.0.0 Safari/537.36 OPR/98.0.0.0 (Edition std-1)" etag="8AVBXmvWEn-vKJhPhZlU" version="21.3.7" type="device">
  <diagram id="rDv57jv-r8Ok0rOvnbmz" name="PÃ¡gina-1">
    <mxGraphModel dx="1062" dy="612" grid="1" gridSize="10" guides="1" tooltips="1" connect="1" arrows="1" fold="1" page="1" pageScale="1" pageWidth="827" pageHeight="1169" math="0" shadow="0">
      <root>
        <mxCell id="0" />
        <mxCell id="1" parent="0" />
        <mxCell id="OnsC9swhkbpNYSKKBlQa-4" style="rounded=0;orthogonalLoop=1;jettySize=auto;html=1;exitX=1;exitY=0.5;exitDx=0;exitDy=0;entryX=0;entryY=0.5;entryDx=0;entryDy=0;" parent="1" source="OnsC9swhkbpNYSKKBlQa-1" target="OnsC9swhkbpNYSKKBlQa-2" edge="1">
          <mxGeometry relative="1" as="geometry" />
        </mxCell>
        <mxCell id="OnsC9swhkbpNYSKKBlQa-1" value="Inicio" style="rounded=1;whiteSpace=wrap;html=1;" parent="1" vertex="1">
          <mxGeometry x="60" y="310" width="70" height="40" as="geometry" />
        </mxCell>
        <mxCell id="OnsC9swhkbpNYSKKBlQa-5" style="edgeStyle=none;rounded=0;orthogonalLoop=1;jettySize=auto;html=1;exitX=1;exitY=0.5;exitDx=0;exitDy=0;entryX=0;entryY=0.5;entryDx=0;entryDy=0;" parent="1" source="OnsC9swhkbpNYSKKBlQa-2" target="OnsC9swhkbpNYSKKBlQa-3" edge="1">
          <mxGeometry relative="1" as="geometry" />
        </mxCell>
        <mxCell id="OnsC9swhkbpNYSKKBlQa-2" value="Descanso" style="rounded=1;whiteSpace=wrap;html=1;" parent="1" vertex="1">
          <mxGeometry x="330" y="310" width="70" height="40" as="geometry" />
        </mxCell>
        <mxCell id="OnsC9swhkbpNYSKKBlQa-3" value="Final" style="rounded=1;whiteSpace=wrap;html=1;" parent="1" vertex="1">
          <mxGeometry x="610" y="310" width="70" height="40" as="geometry" />
        </mxCell>
        <mxCell id="OnsC9swhkbpNYSKKBlQa-6" value="despues de" style="text;html=1;strokeColor=none;fillColor=none;align=center;verticalAlign=middle;whiteSpace=wrap;rounded=0;" parent="1" vertex="1">
          <mxGeometry x="190" y="300" width="80" height="30" as="geometry" />
        </mxCell>
        <mxCell id="OnsC9swhkbpNYSKKBlQa-7" value="despues de" style="text;html=1;strokeColor=none;fillColor=none;align=center;verticalAlign=middle;whiteSpace=wrap;rounded=0;" parent="1" vertex="1">
          <mxGeometry x="480" y="300" width="80" height="30" as="geometry" />
        </mxCell>
        <mxCell id="OnsC9swhkbpNYSKKBlQa-9" value="Actor" style="shape=umlActor;verticalLabelPosition=bottom;verticalAlign=top;html=1;outlineConnect=0;" parent="1" vertex="1">
          <mxGeometry x="265" y="630" width="30" height="60" as="geometry" />
        </mxCell>
        <mxCell id="OnsC9swhkbpNYSKKBlQa-11" value="" style="rounded=1;whiteSpace=wrap;html=1;" parent="1" vertex="1">
          <mxGeometry x="515" y="730" width="10" height="70" as="geometry" />
        </mxCell>
        <mxCell id="OnsC9swhkbpNYSKKBlQa-12" value="" style="rounded=1;whiteSpace=wrap;html=1;" parent="1" vertex="1">
          <mxGeometry x="275" y="730" width="10" height="180" as="geometry" />
        </mxCell>
        <mxCell id="OnsC9swhkbpNYSKKBlQa-46" style="edgeStyle=none;rounded=0;orthogonalLoop=1;jettySize=auto;html=1;exitX=0;exitY=0.5;exitDx=0;exitDy=0;fontSize=11;startArrow=none;" parent="1" source="OnsC9swhkbpNYSKKBlQa-14" edge="1">
          <mxGeometry relative="1" as="geometry">
            <mxPoint x="290" y="880" as="targetPoint" />
          </mxGeometry>
        </mxCell>
        <mxCell id="OnsC9swhkbpNYSKKBlQa-13" value="" style="rounded=1;whiteSpace=wrap;html=1;" parent="1" vertex="1">
          <mxGeometry x="705.5" y="730" width="10" height="150" as="geometry" />
        </mxCell>
        <mxCell id="OnsC9swhkbpNYSKKBlQa-17" value="&lt;span style=&quot;font-size: 11px;&quot;&gt;Registro correcto&lt;/span&gt;" style="text;html=1;strokeColor=none;fillColor=none;align=center;verticalAlign=middle;whiteSpace=wrap;rounded=0;" parent="1" vertex="1">
          <mxGeometry x="370" y="720" width="90" height="20" as="geometry" />
        </mxCell>
        <mxCell id="OnsC9swhkbpNYSKKBlQa-21" value="&lt;span style=&quot;font-size: 11px;&quot;&gt;REGISTRARSE&lt;/span&gt;" style="text;html=1;strokeColor=none;fillColor=none;align=center;verticalAlign=middle;whiteSpace=wrap;rounded=0;" parent="1" vertex="1">
          <mxGeometry x="360" y="580" width="130" height="40" as="geometry" />
        </mxCell>
        <mxCell id="OnsC9swhkbpNYSKKBlQa-25" value="" style="endArrow=classic;html=1;rounded=0;entryX=0;entryY=0.25;entryDx=0;entryDy=0;" parent="1" target="OnsC9swhkbpNYSKKBlQa-11" edge="1">
          <mxGeometry width="50" height="50" relative="1" as="geometry">
            <mxPoint x="285" y="749" as="sourcePoint" />
            <mxPoint x="440" y="750" as="targetPoint" />
          </mxGeometry>
        </mxCell>
        <mxCell id="OnsC9swhkbpNYSKKBlQa-28" value="Programa" style="text;html=1;strokeColor=default;fillColor=none;align=center;verticalAlign=middle;whiteSpace=wrap;rounded=0;" parent="1" vertex="1">
          <mxGeometry x="490" y="660" width="60" height="30" as="geometry" />
        </mxCell>
        <mxCell id="OnsC9swhkbpNYSKKBlQa-30" value="" style="endArrow=classic;html=1;rounded=0;entryX=0.05;entryY=0.093;entryDx=0;entryDy=0;entryPerimeter=0;exitX=1;exitY=0.25;exitDx=0;exitDy=0;" parent="1" source="OnsC9swhkbpNYSKKBlQa-11" target="OnsC9swhkbpNYSKKBlQa-13" edge="1">
          <mxGeometry width="50" height="50" relative="1" as="geometry">
            <mxPoint x="550.5" y="750" as="sourcePoint" />
            <mxPoint x="705.5" y="750.01" as="targetPoint" />
          </mxGeometry>
        </mxCell>
        <mxCell id="OnsC9swhkbpNYSKKBlQa-31" value="" style="endArrow=none;dashed=1;html=1;rounded=0;fontSize=11;entryX=0.5;entryY=1;entryDx=0;entryDy=0;exitX=0.5;exitY=0;exitDx=0;exitDy=0;" parent="1" source="OnsC9swhkbpNYSKKBlQa-12" edge="1">
          <mxGeometry width="50" height="50" relative="1" as="geometry">
            <mxPoint x="360" y="890" as="sourcePoint" />
            <mxPoint x="280" y="710" as="targetPoint" />
          </mxGeometry>
        </mxCell>
        <mxCell id="OnsC9swhkbpNYSKKBlQa-32" value="" style="endArrow=none;dashed=1;html=1;rounded=0;fontSize=11;entryX=0.5;entryY=1;entryDx=0;entryDy=0;exitX=0.5;exitY=0;exitDx=0;exitDy=0;" parent="1" source="OnsC9swhkbpNYSKKBlQa-11" target="OnsC9swhkbpNYSKKBlQa-28" edge="1">
          <mxGeometry width="50" height="50" relative="1" as="geometry">
            <mxPoint x="385.5" y="750" as="sourcePoint" />
            <mxPoint x="385.5" y="720" as="targetPoint" />
          </mxGeometry>
        </mxCell>
        <mxCell id="OnsC9swhkbpNYSKKBlQa-33" value="" style="endArrow=classic;html=1;rounded=0;entryX=1.3;entryY=0.394;entryDx=0;entryDy=0;entryPerimeter=0;" parent="1" target="OnsC9swhkbpNYSKKBlQa-12" edge="1">
          <mxGeometry width="50" height="50" relative="1" as="geometry">
            <mxPoint x="515" y="800" as="sourcePoint" />
            <mxPoint x="290" y="815" as="targetPoint" />
          </mxGeometry>
        </mxCell>
        <mxCell id="OnsC9swhkbpNYSKKBlQa-34" value="&lt;span style=&quot;font-size: 11px;&quot;&gt;Registro incorrecto&lt;/span&gt;" style="text;html=1;strokeColor=none;fillColor=none;align=center;verticalAlign=middle;whiteSpace=wrap;rounded=0;" parent="1" vertex="1">
          <mxGeometry x="350" y="780" width="120" height="20" as="geometry" />
        </mxCell>
        <mxCell id="OnsC9swhkbpNYSKKBlQa-36" value="Enviar dartos" style="text;html=1;align=center;verticalAlign=middle;resizable=0;points=[];autosize=1;strokeColor=none;fillColor=none;fontSize=11;" parent="1" vertex="1">
          <mxGeometry x="580.5" y="720" width="90" height="30" as="geometry" />
        </mxCell>
        <mxCell id="OnsC9swhkbpNYSKKBlQa-38" style="edgeStyle=none;rounded=0;orthogonalLoop=1;jettySize=auto;html=1;entryX=0.5;entryY=1;entryDx=0;entryDy=0;fontSize=11;" parent="1" source="OnsC9swhkbpNYSKKBlQa-13" target="OnsC9swhkbpNYSKKBlQa-13" edge="1">
          <mxGeometry relative="1" as="geometry" />
        </mxCell>
        <mxCell id="OnsC9swhkbpNYSKKBlQa-40" value="Confirmar registro" style="text;html=1;align=center;verticalAlign=middle;resizable=0;points=[];autosize=1;strokeColor=none;fillColor=none;fontSize=11;" parent="1" vertex="1">
          <mxGeometry x="374" y="850" width="110" height="30" as="geometry" />
        </mxCell>
        <mxCell id="OnsC9swhkbpNYSKKBlQa-45" style="edgeStyle=none;rounded=0;orthogonalLoop=1;jettySize=auto;html=1;entryX=0.25;entryY=1;entryDx=0;entryDy=0;fontSize=11;" parent="1" source="OnsC9swhkbpNYSKKBlQa-13" target="OnsC9swhkbpNYSKKBlQa-13" edge="1">
          <mxGeometry relative="1" as="geometry" />
        </mxCell>
        <mxCell id="OnsC9swhkbpNYSKKBlQa-51" value="" style="rounded=0;orthogonalLoop=1;jettySize=auto;html=1;fontSize=11;entryX=0.5;entryY=0;entryDx=0;entryDy=0;dashed=1;endArrow=none;endFill=0;" parent="1" source="OnsC9swhkbpNYSKKBlQa-50" target="OnsC9swhkbpNYSKKBlQa-13" edge="1">
          <mxGeometry relative="1" as="geometry" />
        </mxCell>
        <mxCell id="OnsC9swhkbpNYSKKBlQa-50" value="BBDD" style="text;html=1;strokeColor=default;fillColor=default;align=center;verticalAlign=middle;whiteSpace=wrap;rounded=0;" parent="1" vertex="1">
          <mxGeometry x="680" y="650" width="60" height="30" as="geometry" />
        </mxCell>
        <mxCell id="FArT4s2tk32mDKhb9JAy-2" value="Actor" style="shape=umlActor;verticalLabelPosition=bottom;verticalAlign=top;html=1;outlineConnect=0;" parent="1" vertex="1">
          <mxGeometry x="100" y="1100" width="30" height="60" as="geometry" />
        </mxCell>
        <mxCell id="FArT4s2tk32mDKhb9JAy-3" value="Login" style="text;html=1;strokeColor=default;fillColor=none;align=center;verticalAlign=middle;whiteSpace=wrap;rounded=0;" parent="1" vertex="1">
          <mxGeometry x="250" y="1060" width="60" height="30" as="geometry" />
        </mxCell>
        <mxCell id="FArT4s2tk32mDKhb9JAy-4" value="" style="rounded=1;whiteSpace=wrap;html=1;" parent="1" vertex="1">
          <mxGeometry x="440" y="1110" width="10" height="120" as="geometry" />
        </mxCell>
        <mxCell id="FArT4s2tk32mDKhb9JAy-5" value="" style="rounded=1;whiteSpace=wrap;html=1;" parent="1" vertex="1">
          <mxGeometry x="275" y="1110" width="10" height="180" as="geometry" />
        </mxCell>
        <mxCell id="FArT4s2tk32mDKhb9JAy-6" style="edgeStyle=none;rounded=0;orthogonalLoop=1;jettySize=auto;html=1;exitX=0;exitY=1;exitDx=0;exitDy=0;fontSize=11;" parent="1" source="FArT4s2tk32mDKhb9JAy-7" edge="1">
          <mxGeometry relative="1" as="geometry">
            <mxPoint x="290" y="1260" as="targetPoint" />
          </mxGeometry>
        </mxCell>
        <mxCell id="FArT4s2tk32mDKhb9JAy-7" value="" style="rounded=1;whiteSpace=wrap;html=1;" parent="1" vertex="1">
          <mxGeometry x="610" y="1140" width="10" height="120" as="geometry" />
        </mxCell>
        <mxCell id="FArT4s2tk32mDKhb9JAy-10" value="&lt;font style=&quot;font-size: 11px;&quot;&gt;Enviar datos a BBDD&lt;/font&gt;" style="text;html=1;strokeColor=none;fillColor=none;align=center;verticalAlign=middle;whiteSpace=wrap;rounded=0;" parent="1" vertex="1">
          <mxGeometry x="310" y="1100" width="90" height="20" as="geometry" />
        </mxCell>
        <mxCell id="FArT4s2tk32mDKhb9JAy-11" value="&lt;font style=&quot;font-size: 11px;&quot;&gt;Inicio de sesion&lt;/font&gt;" style="text;html=1;strokeColor=none;fillColor=none;align=center;verticalAlign=middle;whiteSpace=wrap;rounded=0;" parent="1" vertex="1">
          <mxGeometry x="150" y="1100" width="60" height="30" as="geometry" />
        </mxCell>
        <mxCell id="FArT4s2tk32mDKhb9JAy-12" value="" style="endArrow=classic;html=1;rounded=0;" parent="1" source="FArT4s2tk32mDKhb9JAy-2" edge="1">
          <mxGeometry width="50" height="50" relative="1" as="geometry">
            <mxPoint x="160" y="1170" as="sourcePoint" />
            <mxPoint x="270" y="1130" as="targetPoint" />
          </mxGeometry>
        </mxCell>
        <mxCell id="FArT4s2tk32mDKhb9JAy-13" value="" style="endArrow=classic;html=1;rounded=0;" parent="1" edge="1">
          <mxGeometry width="50" height="50" relative="1" as="geometry">
            <mxPoint x="285" y="1129" as="sourcePoint" />
            <mxPoint x="440" y="1130" as="targetPoint" />
          </mxGeometry>
        </mxCell>
        <mxCell id="FArT4s2tk32mDKhb9JAy-14" value="Base de datos" style="text;html=1;strokeColor=default;fillColor=none;align=center;verticalAlign=middle;whiteSpace=wrap;rounded=0;" parent="1" vertex="1">
          <mxGeometry x="414" y="1050" width="60" height="30" as="geometry" />
        </mxCell>
        <mxCell id="FArT4s2tk32mDKhb9JAy-15" value="" style="endArrow=classic;html=1;rounded=0;entryX=0;entryY=0.377;entryDx=0;entryDy=0;entryPerimeter=0;" parent="1" edge="1">
          <mxGeometry width="50" height="50" relative="1" as="geometry">
            <mxPoint x="455" y="1150" as="sourcePoint" />
            <mxPoint x="610" y="1150.01" as="targetPoint" />
          </mxGeometry>
        </mxCell>
        <mxCell id="FArT4s2tk32mDKhb9JAy-16" value="" style="endArrow=none;dashed=1;html=1;rounded=0;fontSize=11;entryX=0.5;entryY=1;entryDx=0;entryDy=0;exitX=0.5;exitY=0;exitDx=0;exitDy=0;" parent="1" source="FArT4s2tk32mDKhb9JAy-5" target="FArT4s2tk32mDKhb9JAy-3" edge="1">
          <mxGeometry width="50" height="50" relative="1" as="geometry">
            <mxPoint x="360" y="1270" as="sourcePoint" />
            <mxPoint x="410" y="1220" as="targetPoint" />
          </mxGeometry>
        </mxCell>
        <mxCell id="FArT4s2tk32mDKhb9JAy-17" value="" style="endArrow=none;dashed=1;html=1;rounded=0;fontSize=11;entryX=0.5;entryY=1;entryDx=0;entryDy=0;exitX=0.5;exitY=0;exitDx=0;exitDy=0;" parent="1" source="FArT4s2tk32mDKhb9JAy-4" target="FArT4s2tk32mDKhb9JAy-14" edge="1">
          <mxGeometry width="50" height="50" relative="1" as="geometry">
            <mxPoint x="290" y="1130" as="sourcePoint" />
            <mxPoint x="290" y="1100" as="targetPoint" />
          </mxGeometry>
        </mxCell>
        <mxCell id="FArT4s2tk32mDKhb9JAy-18" value="" style="endArrow=classic;html=1;rounded=0;" parent="1" edge="1">
          <mxGeometry width="50" height="50" relative="1" as="geometry">
            <mxPoint x="440" y="1195" as="sourcePoint" />
            <mxPoint x="290" y="1195" as="targetPoint" />
          </mxGeometry>
        </mxCell>
        <mxCell id="FArT4s2tk32mDKhb9JAy-19" value="&lt;span style=&quot;font-size: 11px;&quot;&gt;Devolver (login)&lt;/span&gt;" style="text;html=1;strokeColor=none;fillColor=none;align=center;verticalAlign=middle;whiteSpace=wrap;rounded=0;" parent="1" vertex="1">
          <mxGeometry x="320" y="1170" width="90" height="20" as="geometry" />
        </mxCell>
        <mxCell id="FArT4s2tk32mDKhb9JAy-20" value="Nombre = correcto&lt;br&gt;Clave = correcto" style="text;html=1;align=center;verticalAlign=middle;resizable=0;points=[];autosize=1;strokeColor=none;fillColor=none;fontSize=11;" parent="1" vertex="1">
          <mxGeometry x="475" y="1115" width="110" height="40" as="geometry" />
        </mxCell>
        <mxCell id="FArT4s2tk32mDKhb9JAy-21" value="" style="endArrow=classic;html=1;rounded=0;fontSize=11;entryX=0.9;entryY=0.7;entryDx=0;entryDy=0;exitX=-0.2;exitY=0.45;exitDx=0;exitDy=0;exitPerimeter=0;entryPerimeter=0;" parent="1" source="FArT4s2tk32mDKhb9JAy-7" target="FArT4s2tk32mDKhb9JAy-4" edge="1">
          <mxGeometry width="50" height="50" relative="1" as="geometry">
            <mxPoint x="360" y="1380" as="sourcePoint" />
            <mxPoint x="410" y="1330" as="targetPoint" />
          </mxGeometry>
        </mxCell>
        <mxCell id="FArT4s2tk32mDKhb9JAy-22" style="edgeStyle=none;rounded=0;orthogonalLoop=1;jettySize=auto;html=1;entryX=0.5;entryY=1;entryDx=0;entryDy=0;fontSize=11;" parent="1" source="FArT4s2tk32mDKhb9JAy-7" target="FArT4s2tk32mDKhb9JAy-7" edge="1">
          <mxGeometry relative="1" as="geometry" />
        </mxCell>
        <mxCell id="FArT4s2tk32mDKhb9JAy-23" value="Confirmar login" style="text;html=1;align=center;verticalAlign=middle;resizable=0;points=[];autosize=1;strokeColor=none;fillColor=none;fontSize=11;" parent="1" vertex="1">
          <mxGeometry x="475" y="1170" width="100" height="30" as="geometry" />
        </mxCell>
        <mxCell id="FArT4s2tk32mDKhb9JAy-24" style="edgeStyle=none;rounded=0;orthogonalLoop=1;jettySize=auto;html=1;entryX=0.25;entryY=1;entryDx=0;entryDy=0;fontSize=11;" parent="1" source="FArT4s2tk32mDKhb9JAy-7" target="FArT4s2tk32mDKhb9JAy-7" edge="1">
          <mxGeometry relative="1" as="geometry" />
        </mxCell>
        <mxCell id="FArT4s2tk32mDKhb9JAy-25" value="Login incorrecto" style="text;html=1;align=center;verticalAlign=middle;resizable=0;points=[];autosize=1;strokeColor=none;fillColor=none;fontSize=11;" parent="1" vertex="1">
          <mxGeometry x="470" y="1240" width="100" height="30" as="geometry" />
        </mxCell>
        <mxCell id="FArT4s2tk32mDKhb9JAy-26" value="" style="rounded=0;orthogonalLoop=1;jettySize=auto;html=1;fontSize=11;entryX=0.5;entryY=0;entryDx=0;entryDy=0;dashed=1;endArrow=none;endFill=0;" parent="1" source="FArT4s2tk32mDKhb9JAy-27" target="FArT4s2tk32mDKhb9JAy-7" edge="1">
          <mxGeometry relative="1" as="geometry" />
        </mxCell>
        <mxCell id="FArT4s2tk32mDKhb9JAy-27" value="Programa" style="text;html=1;strokeColor=default;fillColor=default;align=center;verticalAlign=middle;whiteSpace=wrap;rounded=0;" parent="1" vertex="1">
          <mxGeometry x="585" y="1050" width="60" height="30" as="geometry" />
        </mxCell>
        <mxCell id="OnsC9swhkbpNYSKKBlQa-14" value="" style="rounded=1;whiteSpace=wrap;html=1;" parent="1" vertex="1">
          <mxGeometry x="515" y="860" width="10" height="40" as="geometry" />
        </mxCell>
        <mxCell id="ZZbGxPK905RiCfRXxdin-5" value="" style="edgeStyle=none;rounded=0;orthogonalLoop=1;jettySize=auto;html=1;exitX=0;exitY=1;exitDx=0;exitDy=0;fontSize=11;endArrow=none;" parent="1" source="OnsC9swhkbpNYSKKBlQa-13" target="OnsC9swhkbpNYSKKBlQa-14" edge="1">
          <mxGeometry relative="1" as="geometry">
            <mxPoint x="290" y="880" as="targetPoint" />
            <mxPoint x="705.5" y="879.9999999999998" as="sourcePoint" />
          </mxGeometry>
        </mxCell>
        <mxCell id="ZZbGxPK905RiCfRXxdin-6" value="Enviar dartos" style="text;html=1;align=center;verticalAlign=middle;resizable=0;points=[];autosize=1;strokeColor=none;fillColor=none;fontSize=11;" parent="1" vertex="1">
          <mxGeometry x="570" y="850" width="90" height="30" as="geometry" />
        </mxCell>
        <mxCell id="XogMgEZH332ViA2TbceF-1" value="&lt;span style=&quot;font-size: 11px;&quot;&gt;LOGIN CON CUENTA&lt;/span&gt;" style="text;html=1;strokeColor=none;fillColor=none;align=center;verticalAlign=middle;whiteSpace=wrap;rounded=0;" vertex="1" parent="1">
          <mxGeometry x="295" y="980" width="130" height="40" as="geometry" />
        </mxCell>
        <mxCell id="XogMgEZH332ViA2TbceF-2" value="" style="endArrow=none;dashed=1;html=1;rounded=0;fontSize=11;exitX=0.5;exitY=0;exitDx=0;exitDy=0;entryX=0.5;entryY=1;entryDx=0;entryDy=0;" edge="1" parent="1" source="OnsC9swhkbpNYSKKBlQa-14" target="OnsC9swhkbpNYSKKBlQa-11">
          <mxGeometry width="50" height="50" relative="1" as="geometry">
            <mxPoint x="540" y="850" as="sourcePoint" />
            <mxPoint x="550" y="810" as="targetPoint" />
          </mxGeometry>
        </mxCell>
        <mxCell id="XogMgEZH332ViA2TbceF-3" value="&lt;span style=&quot;font-size: 11px;&quot;&gt;VER ESTADISTICAS&lt;/span&gt;" style="text;html=1;strokeColor=none;fillColor=none;align=center;verticalAlign=middle;whiteSpace=wrap;rounded=0;" vertex="1" parent="1">
          <mxGeometry x="295" y="1420" width="130" height="40" as="geometry" />
        </mxCell>
        <mxCell id="XogMgEZH332ViA2TbceF-4" value="Actor" style="shape=umlActor;verticalLabelPosition=bottom;verticalAlign=top;html=1;outlineConnect=0;" vertex="1" parent="1">
          <mxGeometry x="100" y="1550" width="30" height="60" as="geometry" />
        </mxCell>
        <mxCell id="XogMgEZH332ViA2TbceF-6" value="" style="endArrow=classic;html=1;rounded=0;" edge="1" parent="1" source="XogMgEZH332ViA2TbceF-4">
          <mxGeometry width="50" height="50" relative="1" as="geometry">
            <mxPoint x="400" y="1420" as="sourcePoint" />
            <mxPoint x="270" y="1580" as="targetPoint" />
          </mxGeometry>
        </mxCell>
        <mxCell id="XogMgEZH332ViA2TbceF-7" value="Tabla de estadÃ­sticas" style="rounded=0;whiteSpace=wrap;html=1;" vertex="1" parent="1">
          <mxGeometry x="232.5" y="1480" width="95" height="40" as="geometry" />
        </mxCell>
        <mxCell id="XogMgEZH332ViA2TbceF-8" value="&lt;span style=&quot;font-size: 11px;&quot;&gt;Abrir&amp;nbsp;estadÃ­sticas&lt;/span&gt;" style="text;html=1;strokeColor=none;fillColor=none;align=center;verticalAlign=middle;whiteSpace=wrap;rounded=0;" vertex="1" parent="1">
          <mxGeometry x="150" y="1550" width="90" height="30" as="geometry" />
        </mxCell>
        <mxCell id="XogMgEZH332ViA2TbceF-9" value="" style="endArrow=none;dashed=1;html=1;rounded=0;fontSize=11;entryX=0.5;entryY=1;entryDx=0;entryDy=0;exitX=0;exitY=0.5;exitDx=0;exitDy=0;" edge="1" parent="1" source="XogMgEZH332ViA2TbceF-10" target="XogMgEZH332ViA2TbceF-7">
          <mxGeometry width="50" height="50" relative="1" as="geometry">
            <mxPoint x="280" y="1560" as="sourcePoint" />
            <mxPoint x="279.5" y="1545" as="targetPoint" />
          </mxGeometry>
        </mxCell>
        <mxCell id="XogMgEZH332ViA2TbceF-10" value="" style="rounded=0;whiteSpace=wrap;html=1;rotation=90;" vertex="1" parent="1">
          <mxGeometry x="210.51" y="1631.54" width="139.02" height="10" as="geometry" />
        </mxCell>
        <mxCell id="XogMgEZH332ViA2TbceF-11" value="Programa" style="text;html=1;strokeColor=default;fillColor=none;align=center;verticalAlign=middle;whiteSpace=wrap;rounded=0;" vertex="1" parent="1">
          <mxGeometry x="415" y="1485" width="60" height="30" as="geometry" />
        </mxCell>
        <mxCell id="XogMgEZH332ViA2TbceF-12" value="" style="endArrow=none;dashed=1;html=1;rounded=0;fontSize=11;entryX=0.5;entryY=1;entryDx=0;entryDy=0;exitX=0.5;exitY=0;exitDx=0;exitDy=0;" edge="1" parent="1" source="XogMgEZH332ViA2TbceF-14" target="XogMgEZH332ViA2TbceF-11">
          <mxGeometry width="50" height="50" relative="1" as="geometry">
            <mxPoint x="445" y="1550" as="sourcePoint" />
            <mxPoint x="459.5" y="1530" as="targetPoint" />
          </mxGeometry>
        </mxCell>
        <mxCell id="XogMgEZH332ViA2TbceF-13" value="" style="endArrow=classic;html=1;rounded=0;entryX=-0.2;entryY=0.157;entryDx=0;entryDy=0;entryPerimeter=0;" edge="1" parent="1" target="XogMgEZH332ViA2TbceF-14">
          <mxGeometry width="50" height="50" relative="1" as="geometry">
            <mxPoint x="290" y="1580" as="sourcePoint" />
            <mxPoint x="430" y="1582" as="targetPoint" />
          </mxGeometry>
        </mxCell>
        <mxCell id="XogMgEZH332ViA2TbceF-14" value="" style="rounded=0;whiteSpace=wrap;html=1;" vertex="1" parent="1">
          <mxGeometry x="440" y="1560" width="10" height="130" as="geometry" />
        </mxCell>
        <mxCell id="XogMgEZH332ViA2TbceF-15" value="&lt;span style=&quot;font-size: 11px;&quot;&gt;Pedir los datos de los resultados&lt;/span&gt;" style="text;html=1;strokeColor=none;fillColor=none;align=center;verticalAlign=middle;whiteSpace=wrap;rounded=0;" vertex="1" parent="1">
          <mxGeometry x="320" y="1550" width="90" height="30" as="geometry" />
        </mxCell>
        <mxCell id="XogMgEZH332ViA2TbceF-16" value="" style="endArrow=classic;html=1;rounded=0;entryX=0.1;entryY=0.111;entryDx=0;entryDy=0;entryPerimeter=0;" edge="1" parent="1" target="XogMgEZH332ViA2TbceF-21">
          <mxGeometry width="50" height="50" relative="1" as="geometry">
            <mxPoint x="450" y="1607" as="sourcePoint" />
            <mxPoint x="560" y="1610" as="targetPoint" />
          </mxGeometry>
        </mxCell>
        <mxCell id="XogMgEZH332ViA2TbceF-17" value="&lt;span style=&quot;font-size: 11px;&quot;&gt;Pedir los datos de los resultados&lt;/span&gt;" style="text;html=1;strokeColor=none;fillColor=none;align=center;verticalAlign=middle;whiteSpace=wrap;rounded=0;" vertex="1" parent="1">
          <mxGeometry x="460" y="1570" width="90" height="30" as="geometry" />
        </mxCell>
        <mxCell id="XogMgEZH332ViA2TbceF-18" value="Base de datos" style="text;html=1;strokeColor=default;fillColor=default;align=center;verticalAlign=middle;whiteSpace=wrap;rounded=0;" vertex="1" parent="1">
          <mxGeometry x="560" y="1485" width="60" height="30" as="geometry" />
        </mxCell>
        <mxCell id="XogMgEZH332ViA2TbceF-20" value="" style="endArrow=none;dashed=1;html=1;rounded=0;entryX=0.5;entryY=1;entryDx=0;entryDy=0;exitX=0.5;exitY=0;exitDx=0;exitDy=0;" edge="1" parent="1" source="XogMgEZH332ViA2TbceF-21" target="XogMgEZH332ViA2TbceF-18">
          <mxGeometry width="50" height="50" relative="1" as="geometry">
            <mxPoint x="680" y="1550" as="sourcePoint" />
            <mxPoint x="755.5" y="1570" as="targetPoint" />
          </mxGeometry>
        </mxCell>
        <mxCell id="XogMgEZH332ViA2TbceF-21" value="" style="rounded=0;whiteSpace=wrap;html=1;" vertex="1" parent="1">
          <mxGeometry x="585" y="1600" width="10" height="60" as="geometry" />
        </mxCell>
        <mxCell id="XogMgEZH332ViA2TbceF-22" value="" style="endArrow=classic;html=1;rounded=0;exitX=0;exitY=0.75;exitDx=0;exitDy=0;entryX=1.32;entryY=0.655;entryDx=0;entryDy=0;entryPerimeter=0;" edge="1" parent="1" source="XogMgEZH332ViA2TbceF-21" target="XogMgEZH332ViA2TbceF-14">
          <mxGeometry width="50" height="50" relative="1" as="geometry">
            <mxPoint x="380" y="1650" as="sourcePoint" />
            <mxPoint x="430" y="1600" as="targetPoint" />
          </mxGeometry>
        </mxCell>
        <mxCell id="XogMgEZH332ViA2TbceF-23" value="&lt;span style=&quot;font-size: 11px;&quot;&gt;Devolver los resultados&lt;/span&gt;" style="text;html=1;strokeColor=none;fillColor=none;align=center;verticalAlign=middle;whiteSpace=wrap;rounded=0;" vertex="1" parent="1">
          <mxGeometry x="480" y="1660" width="90" height="30" as="geometry" />
        </mxCell>
        <mxCell id="XogMgEZH332ViA2TbceF-24" value="" style="endArrow=classic;html=1;rounded=0;entryX=0.75;entryY=0;entryDx=0;entryDy=0;" edge="1" parent="1" target="XogMgEZH332ViA2TbceF-10">
          <mxGeometry width="50" height="50" relative="1" as="geometry">
            <mxPoint x="440" y="1671" as="sourcePoint" />
            <mxPoint x="463" y="1655" as="targetPoint" />
          </mxGeometry>
        </mxCell>
        <mxCell id="XogMgEZH332ViA2TbceF-25" value="&lt;span style=&quot;font-size: 11px;&quot;&gt;Mostrar los resultados en la tabla de estadisticas&lt;/span&gt;" style="text;html=1;strokeColor=none;fillColor=none;align=center;verticalAlign=middle;whiteSpace=wrap;rounded=0;" vertex="1" parent="1">
          <mxGeometry x="295" y="1670" width="135" height="60" as="geometry" />
        </mxCell>
        <mxCell id="XogMgEZH332ViA2TbceF-26" value="&lt;span style=&quot;font-size: 11px;&quot;&gt;CREAR JUGADOR&lt;/span&gt;" style="text;html=1;strokeColor=none;fillColor=none;align=center;verticalAlign=middle;whiteSpace=wrap;rounded=0;" vertex="1" parent="1">
          <mxGeometry x="295" y="1820" width="130" height="40" as="geometry" />
        </mxCell>
        <mxCell id="XogMgEZH332ViA2TbceF-27" value="Actor" style="shape=umlActor;verticalLabelPosition=bottom;verticalAlign=top;html=1;outlineConnect=0;" vertex="1" parent="1">
          <mxGeometry x="100" y="1950" width="30" height="60" as="geometry" />
        </mxCell>
        <mxCell id="XogMgEZH332ViA2TbceF-28" value="" style="endArrow=classic;html=1;rounded=0;" edge="1" parent="1" source="XogMgEZH332ViA2TbceF-27">
          <mxGeometry width="50" height="50" relative="1" as="geometry">
            <mxPoint x="400" y="1820" as="sourcePoint" />
            <mxPoint x="270" y="1980" as="targetPoint" />
          </mxGeometry>
        </mxCell>
        <mxCell id="XogMgEZH332ViA2TbceF-29" value="Programa" style="rounded=0;whiteSpace=wrap;html=1;" vertex="1" parent="1">
          <mxGeometry x="232.5" y="1880" width="95" height="40" as="geometry" />
        </mxCell>
        <mxCell id="XogMgEZH332ViA2TbceF-30" value="&lt;span style=&quot;font-size: 11px;&quot;&gt;Escribir datos del jugador&lt;/span&gt;" style="text;html=1;strokeColor=none;fillColor=none;align=center;verticalAlign=middle;whiteSpace=wrap;rounded=0;" vertex="1" parent="1">
          <mxGeometry x="150" y="1950" width="90" height="30" as="geometry" />
        </mxCell>
        <mxCell id="XogMgEZH332ViA2TbceF-31" value="" style="endArrow=none;dashed=1;html=1;rounded=0;fontSize=11;entryX=0.5;entryY=1;entryDx=0;entryDy=0;exitX=0;exitY=0.5;exitDx=0;exitDy=0;" edge="1" parent="1" source="XogMgEZH332ViA2TbceF-32" target="XogMgEZH332ViA2TbceF-29">
          <mxGeometry width="50" height="50" relative="1" as="geometry">
            <mxPoint x="280" y="1960" as="sourcePoint" />
            <mxPoint x="279.5" y="1945" as="targetPoint" />
          </mxGeometry>
        </mxCell>
        <mxCell id="XogMgEZH332ViA2TbceF-32" value="" style="rounded=0;whiteSpace=wrap;html=1;rotation=90;" vertex="1" parent="1">
          <mxGeometry x="130.09" y="2111.96" width="299.85" height="10" as="geometry" />
        </mxCell>
        <mxCell id="XogMgEZH332ViA2TbceF-33" value="Base de datos" style="text;html=1;strokeColor=default;fillColor=none;align=center;verticalAlign=middle;whiteSpace=wrap;rounded=0;" vertex="1" parent="1">
          <mxGeometry x="406.5" y="1880" width="75" height="35" as="geometry" />
        </mxCell>
        <mxCell id="XogMgEZH332ViA2TbceF-34" value="" style="endArrow=none;dashed=1;html=1;rounded=0;fontSize=11;entryX=0.5;entryY=1;entryDx=0;entryDy=0;exitX=0.5;exitY=0;exitDx=0;exitDy=0;" edge="1" parent="1" source="XogMgEZH332ViA2TbceF-36" target="XogMgEZH332ViA2TbceF-33">
          <mxGeometry width="50" height="50" relative="1" as="geometry">
            <mxPoint x="445" y="1950" as="sourcePoint" />
            <mxPoint x="459.5" y="1930" as="targetPoint" />
          </mxGeometry>
        </mxCell>
        <mxCell id="XogMgEZH332ViA2TbceF-35" value="" style="endArrow=classic;html=1;rounded=0;entryX=0;entryY=0.5;entryDx=0;entryDy=0;" edge="1" parent="1" target="XogMgEZH332ViA2TbceF-36">
          <mxGeometry width="50" height="50" relative="1" as="geometry">
            <mxPoint x="290" y="1980" as="sourcePoint" />
            <mxPoint x="430" y="1980" as="targetPoint" />
          </mxGeometry>
        </mxCell>
        <mxCell id="XogMgEZH332ViA2TbceF-36" value="" style="rounded=0;whiteSpace=wrap;html=1;" vertex="1" parent="1">
          <mxGeometry x="439" y="1960" width="10" height="40" as="geometry" />
        </mxCell>
        <mxCell id="XogMgEZH332ViA2TbceF-37" value="&lt;span style=&quot;font-size: 11px;&quot;&gt;Insertar datos de nombre&lt;/span&gt;" style="text;html=1;strokeColor=none;fillColor=none;align=center;verticalAlign=middle;whiteSpace=wrap;rounded=0;" vertex="1" parent="1">
          <mxGeometry x="320" y="1940" width="90" height="30" as="geometry" />
        </mxCell>
        <mxCell id="XogMgEZH332ViA2TbceF-45" value="" style="endArrow=classic;html=1;rounded=0;entryX=0;entryY=0.5;entryDx=0;entryDy=0;" edge="1" parent="1" target="XogMgEZH332ViA2TbceF-56">
          <mxGeometry width="50" height="50" relative="1" as="geometry">
            <mxPoint x="285" y="2049.5" as="sourcePoint" />
            <mxPoint x="425" y="2049.5" as="targetPoint" />
          </mxGeometry>
        </mxCell>
        <mxCell id="XogMgEZH332ViA2TbceF-46" value="&lt;span style=&quot;font-size: 11px;&quot;&gt;Insertar datos de tiro&lt;/span&gt;" style="text;html=1;strokeColor=none;fillColor=none;align=center;verticalAlign=middle;whiteSpace=wrap;rounded=0;" vertex="1" parent="1">
          <mxGeometry x="305" y="2010" width="125" height="18.46" as="geometry" />
        </mxCell>
        <mxCell id="XogMgEZH332ViA2TbceF-49" value="" style="endArrow=classic;html=1;rounded=0;entryX=0;entryY=0.5;entryDx=0;entryDy=0;" edge="1" parent="1" target="XogMgEZH332ViA2TbceF-59">
          <mxGeometry width="50" height="50" relative="1" as="geometry">
            <mxPoint x="286.5" y="2119.5" as="sourcePoint" />
            <mxPoint x="433.5" y="2119.5" as="targetPoint" />
          </mxGeometry>
        </mxCell>
        <mxCell id="XogMgEZH332ViA2TbceF-50" value="&lt;span style=&quot;font-size: 11px;&quot;&gt;Insertar datos de defensa&lt;/span&gt;" style="text;html=1;strokeColor=none;fillColor=none;align=center;verticalAlign=middle;whiteSpace=wrap;rounded=0;" vertex="1" parent="1">
          <mxGeometry x="302.5" y="2080" width="120" height="40" as="geometry" />
        </mxCell>
        <mxCell id="XogMgEZH332ViA2TbceF-52" value="&lt;span style=&quot;font-size: 11px;&quot;&gt;Insertar datos de destreza&lt;/span&gt;" style="text;html=1;strokeColor=none;fillColor=none;align=center;verticalAlign=middle;whiteSpace=wrap;rounded=0;" vertex="1" parent="1">
          <mxGeometry x="306.25" y="2140" width="112.5" height="30" as="geometry" />
        </mxCell>
        <mxCell id="XogMgEZH332ViA2TbceF-53" value="" style="endArrow=classic;html=1;rounded=0;entryX=0;entryY=0.5;entryDx=0;entryDy=0;exitX=0.75;exitY=0;exitDx=0;exitDy=0;" edge="1" parent="1" source="XogMgEZH332ViA2TbceF-32" target="XogMgEZH332ViA2TbceF-61">
          <mxGeometry width="50" height="50" relative="1" as="geometry">
            <mxPoint x="300" y="2200" as="sourcePoint" />
            <mxPoint x="443" y="2260" as="targetPoint" />
          </mxGeometry>
        </mxCell>
        <mxCell id="XogMgEZH332ViA2TbceF-54" value="&lt;span style=&quot;font-size: 11px;&quot;&gt;Insertar datos de posicion&lt;/span&gt;" style="text;html=1;strokeColor=none;fillColor=none;align=center;verticalAlign=middle;whiteSpace=wrap;rounded=0;" vertex="1" parent="1">
          <mxGeometry x="303.75" y="2220" width="112.5" height="30" as="geometry" />
        </mxCell>
        <mxCell id="XogMgEZH332ViA2TbceF-56" value="" style="rounded=0;whiteSpace=wrap;html=1;" vertex="1" parent="1">
          <mxGeometry x="439" y="2030" width="10" height="40" as="geometry" />
        </mxCell>
        <mxCell id="XogMgEZH332ViA2TbceF-58" value="" style="endArrow=none;dashed=1;html=1;rounded=0;entryX=0.5;entryY=1;entryDx=0;entryDy=0;exitX=0.5;exitY=0;exitDx=0;exitDy=0;" edge="1" parent="1" source="XogMgEZH332ViA2TbceF-56" target="XogMgEZH332ViA2TbceF-36">
          <mxGeometry width="50" height="50" relative="1" as="geometry">
            <mxPoint x="380" y="2100" as="sourcePoint" />
            <mxPoint x="430" y="2050" as="targetPoint" />
          </mxGeometry>
        </mxCell>
        <mxCell id="XogMgEZH332ViA2TbceF-59" value="" style="rounded=0;whiteSpace=wrap;html=1;" vertex="1" parent="1">
          <mxGeometry x="439" y="2100" width="10" height="40" as="geometry" />
        </mxCell>
        <mxCell id="XogMgEZH332ViA2TbceF-60" value="" style="endArrow=none;dashed=1;html=1;rounded=0;entryX=0.5;entryY=1;entryDx=0;entryDy=0;exitX=0.5;exitY=0;exitDx=0;exitDy=0;" edge="1" parent="1" source="XogMgEZH332ViA2TbceF-59" target="XogMgEZH332ViA2TbceF-56">
          <mxGeometry width="50" height="50" relative="1" as="geometry">
            <mxPoint x="380" y="2100" as="sourcePoint" />
            <mxPoint x="430" y="2050" as="targetPoint" />
          </mxGeometry>
        </mxCell>
        <mxCell id="XogMgEZH332ViA2TbceF-61" value="" style="rounded=0;whiteSpace=wrap;html=1;" vertex="1" parent="1">
          <mxGeometry x="439" y="2170" width="10" height="40" as="geometry" />
        </mxCell>
        <mxCell id="XogMgEZH332ViA2TbceF-62" value="" style="endArrow=none;dashed=1;html=1;rounded=0;exitX=0.5;exitY=0;exitDx=0;exitDy=0;entryX=0.5;entryY=1;entryDx=0;entryDy=0;" edge="1" parent="1" source="XogMgEZH332ViA2TbceF-61" target="XogMgEZH332ViA2TbceF-59">
          <mxGeometry width="50" height="50" relative="1" as="geometry">
            <mxPoint x="380" y="2100" as="sourcePoint" />
            <mxPoint x="430" y="2050" as="targetPoint" />
          </mxGeometry>
        </mxCell>
        <mxCell id="XogMgEZH332ViA2TbceF-63" value="" style="rounded=0;whiteSpace=wrap;html=1;" vertex="1" parent="1">
          <mxGeometry x="439" y="2240" width="10" height="40" as="geometry" />
        </mxCell>
        <mxCell id="XogMgEZH332ViA2TbceF-64" value="" style="endArrow=none;dashed=1;html=1;rounded=0;exitX=0.5;exitY=0;exitDx=0;exitDy=0;entryX=0.5;entryY=1;entryDx=0;entryDy=0;" edge="1" parent="1" source="XogMgEZH332ViA2TbceF-63" target="XogMgEZH332ViA2TbceF-61">
          <mxGeometry width="50" height="50" relative="1" as="geometry">
            <mxPoint x="380" y="2100" as="sourcePoint" />
            <mxPoint x="430" y="2050" as="targetPoint" />
          </mxGeometry>
        </mxCell>
        <mxCell id="XogMgEZH332ViA2TbceF-65" value="" style="endArrow=classic;html=1;rounded=0;entryX=0;entryY=0.5;entryDx=0;entryDy=0;exitX=0.976;exitY=0.061;exitDx=0;exitDy=0;exitPerimeter=0;" edge="1" parent="1" source="XogMgEZH332ViA2TbceF-32" target="XogMgEZH332ViA2TbceF-63">
          <mxGeometry width="50" height="50" relative="1" as="geometry">
            <mxPoint x="290" y="2260" as="sourcePoint" />
            <mxPoint x="430" y="2050" as="targetPoint" />
          </mxGeometry>
        </mxCell>
        <mxCell id="XogMgEZH332ViA2TbceF-74" value="" style="group" vertex="1" connectable="0" parent="1">
          <mxGeometry x="270" y="910" width="20.019999999999982" height="40" as="geometry" />
        </mxCell>
        <mxCell id="XogMgEZH332ViA2TbceF-67" value="" style="endArrow=none;dashed=1;html=1;rounded=0;" edge="1" parent="XogMgEZH332ViA2TbceF-74">
          <mxGeometry width="50" height="50" relative="1" as="geometry">
            <mxPoint x="10.019999999999982" y="30" as="sourcePoint" />
            <mxPoint x="9.519999999999982" as="targetPoint" />
          </mxGeometry>
        </mxCell>
        <mxCell id="XogMgEZH332ViA2TbceF-68" value="" style="endArrow=none;html=1;rounded=0;" edge="1" parent="XogMgEZH332ViA2TbceF-74">
          <mxGeometry width="50" height="50" relative="1" as="geometry">
            <mxPoint x="20.019999999999982" y="40" as="sourcePoint" />
            <mxPoint x="0.01999999999998181" y="20" as="targetPoint" />
          </mxGeometry>
        </mxCell>
        <mxCell id="XogMgEZH332ViA2TbceF-69" value="" style="endArrow=none;html=1;rounded=0;" edge="1" parent="XogMgEZH332ViA2TbceF-74">
          <mxGeometry width="50" height="50" relative="1" as="geometry">
            <mxPoint y="40" as="sourcePoint" />
            <mxPoint x="20" y="20" as="targetPoint" />
          </mxGeometry>
        </mxCell>
        <mxCell id="XogMgEZH332ViA2TbceF-75" value="" style="group" vertex="1" connectable="0" parent="1">
          <mxGeometry x="510" y="900" width="20.019999999999982" height="40" as="geometry" />
        </mxCell>
        <mxCell id="XogMgEZH332ViA2TbceF-76" value="" style="endArrow=none;dashed=1;html=1;rounded=0;" edge="1" parent="XogMgEZH332ViA2TbceF-75">
          <mxGeometry width="50" height="50" relative="1" as="geometry">
            <mxPoint x="10.019999999999982" y="30" as="sourcePoint" />
            <mxPoint x="9.519999999999982" as="targetPoint" />
          </mxGeometry>
        </mxCell>
        <mxCell id="XogMgEZH332ViA2TbceF-77" value="" style="endArrow=none;html=1;rounded=0;" edge="1" parent="XogMgEZH332ViA2TbceF-75">
          <mxGeometry width="50" height="50" relative="1" as="geometry">
            <mxPoint x="20.019999999999982" y="40" as="sourcePoint" />
            <mxPoint x="0.01999999999998181" y="20" as="targetPoint" />
          </mxGeometry>
        </mxCell>
        <mxCell id="XogMgEZH332ViA2TbceF-78" value="" style="endArrow=none;html=1;rounded=0;" edge="1" parent="XogMgEZH332ViA2TbceF-75">
          <mxGeometry width="50" height="50" relative="1" as="geometry">
            <mxPoint y="40" as="sourcePoint" />
            <mxPoint x="20" y="20" as="targetPoint" />
          </mxGeometry>
        </mxCell>
        <mxCell id="XogMgEZH332ViA2TbceF-79" value="" style="group" vertex="1" connectable="0" parent="1">
          <mxGeometry x="700" y="880" width="20.019999999999982" height="40" as="geometry" />
        </mxCell>
        <mxCell id="XogMgEZH332ViA2TbceF-80" value="" style="endArrow=none;dashed=1;html=1;rounded=0;" edge="1" parent="XogMgEZH332ViA2TbceF-79">
          <mxGeometry width="50" height="50" relative="1" as="geometry">
            <mxPoint x="10.019999999999982" y="30" as="sourcePoint" />
            <mxPoint x="9.519999999999982" as="targetPoint" />
          </mxGeometry>
        </mxCell>
        <mxCell id="XogMgEZH332ViA2TbceF-81" value="" style="endArrow=none;html=1;rounded=0;" edge="1" parent="XogMgEZH332ViA2TbceF-79">
          <mxGeometry width="50" height="50" relative="1" as="geometry">
            <mxPoint x="20.019999999999982" y="40" as="sourcePoint" />
            <mxPoint x="0.01999999999998181" y="20" as="targetPoint" />
          </mxGeometry>
        </mxCell>
        <mxCell id="XogMgEZH332ViA2TbceF-82" value="" style="endArrow=none;html=1;rounded=0;" edge="1" parent="XogMgEZH332ViA2TbceF-79">
          <mxGeometry width="50" height="50" relative="1" as="geometry">
            <mxPoint y="40" as="sourcePoint" />
            <mxPoint x="20" y="20" as="targetPoint" />
          </mxGeometry>
        </mxCell>
        <mxCell id="XogMgEZH332ViA2TbceF-83" value="" style="group" vertex="1" connectable="0" parent="1">
          <mxGeometry x="270" y="1290" width="20.019999999999982" height="40" as="geometry" />
        </mxCell>
        <mxCell id="XogMgEZH332ViA2TbceF-84" value="" style="endArrow=none;dashed=1;html=1;rounded=0;" edge="1" parent="XogMgEZH332ViA2TbceF-83">
          <mxGeometry width="50" height="50" relative="1" as="geometry">
            <mxPoint x="10.019999999999982" y="30" as="sourcePoint" />
            <mxPoint x="9.519999999999982" as="targetPoint" />
          </mxGeometry>
        </mxCell>
        <mxCell id="XogMgEZH332ViA2TbceF-85" value="" style="endArrow=none;html=1;rounded=0;" edge="1" parent="XogMgEZH332ViA2TbceF-83">
          <mxGeometry width="50" height="50" relative="1" as="geometry">
            <mxPoint x="20.019999999999982" y="40" as="sourcePoint" />
            <mxPoint x="0.01999999999998181" y="20" as="targetPoint" />
          </mxGeometry>
        </mxCell>
        <mxCell id="XogMgEZH332ViA2TbceF-86" value="" style="endArrow=none;html=1;rounded=0;" edge="1" parent="XogMgEZH332ViA2TbceF-83">
          <mxGeometry width="50" height="50" relative="1" as="geometry">
            <mxPoint y="40" as="sourcePoint" />
            <mxPoint x="20" y="20" as="targetPoint" />
          </mxGeometry>
        </mxCell>
        <mxCell id="XogMgEZH332ViA2TbceF-87" value="" style="group" vertex="1" connectable="0" parent="1">
          <mxGeometry x="604.99" y="1270" width="20.02" height="40" as="geometry" />
        </mxCell>
        <mxCell id="XogMgEZH332ViA2TbceF-88" value="" style="endArrow=none;dashed=1;html=1;rounded=0;entryX=0.5;entryY=1;entryDx=0;entryDy=0;" edge="1" parent="XogMgEZH332ViA2TbceF-87" target="FArT4s2tk32mDKhb9JAy-7">
          <mxGeometry width="50" height="50" relative="1" as="geometry">
            <mxPoint x="10.01999999999999" y="30" as="sourcePoint" />
            <mxPoint x="50" as="targetPoint" />
          </mxGeometry>
        </mxCell>
        <mxCell id="XogMgEZH332ViA2TbceF-89" value="" style="endArrow=none;html=1;rounded=0;" edge="1" parent="XogMgEZH332ViA2TbceF-87">
          <mxGeometry width="50" height="50" relative="1" as="geometry">
            <mxPoint x="20.02" y="40" as="sourcePoint" />
            <mxPoint x="0.019999999999981827" y="20" as="targetPoint" />
          </mxGeometry>
        </mxCell>
        <mxCell id="XogMgEZH332ViA2TbceF-90" value="" style="endArrow=none;html=1;rounded=0;" edge="1" parent="XogMgEZH332ViA2TbceF-87">
          <mxGeometry width="50" height="50" relative="1" as="geometry">
            <mxPoint y="40" as="sourcePoint" />
            <mxPoint x="20.000000000000018" y="20" as="targetPoint" />
          </mxGeometry>
        </mxCell>
        <mxCell id="XogMgEZH332ViA2TbceF-91" value="" style="group" vertex="1" connectable="0" parent="1">
          <mxGeometry x="435" y="1230" width="20" height="20" as="geometry" />
        </mxCell>
        <mxCell id="XogMgEZH332ViA2TbceF-92" value="" style="endArrow=none;dashed=1;html=1;rounded=0;entryX=0.5;entryY=1;entryDx=0;entryDy=0;" edge="1" parent="XogMgEZH332ViA2TbceF-91" target="FArT4s2tk32mDKhb9JAy-4">
          <mxGeometry width="50" height="50" relative="1" as="geometry">
            <mxPoint x="10.019999999999982" y="15" as="sourcePoint" />
            <mxPoint x="9.519999999999982" as="targetPoint" />
          </mxGeometry>
        </mxCell>
        <mxCell id="XogMgEZH332ViA2TbceF-93" value="" style="endArrow=none;html=1;rounded=0;" edge="1" parent="XogMgEZH332ViA2TbceF-91">
          <mxGeometry width="50" height="50" relative="1" as="geometry">
            <mxPoint x="20.019999999999982" y="20" as="sourcePoint" />
            <mxPoint x="0.01999999999998181" y="10" as="targetPoint" />
          </mxGeometry>
        </mxCell>
        <mxCell id="XogMgEZH332ViA2TbceF-94" value="" style="endArrow=none;html=1;rounded=0;" edge="1" parent="XogMgEZH332ViA2TbceF-91">
          <mxGeometry width="50" height="50" relative="1" as="geometry">
            <mxPoint y="20" as="sourcePoint" />
            <mxPoint x="20" y="10" as="targetPoint" />
          </mxGeometry>
        </mxCell>
        <mxCell id="XogMgEZH332ViA2TbceF-95" value="" style="group" vertex="1" connectable="0" parent="1">
          <mxGeometry x="270" y="1710" width="20.019999999999982" height="40" as="geometry" />
        </mxCell>
        <mxCell id="XogMgEZH332ViA2TbceF-96" value="" style="endArrow=none;dashed=1;html=1;rounded=0;entryX=1;entryY=0.5;entryDx=0;entryDy=0;" edge="1" parent="XogMgEZH332ViA2TbceF-95" target="XogMgEZH332ViA2TbceF-10">
          <mxGeometry width="50" height="50" relative="1" as="geometry">
            <mxPoint x="10.019999999999982" y="30" as="sourcePoint" />
            <mxPoint x="9.519999999999982" as="targetPoint" />
          </mxGeometry>
        </mxCell>
        <mxCell id="XogMgEZH332ViA2TbceF-97" value="" style="endArrow=none;html=1;rounded=0;" edge="1" parent="XogMgEZH332ViA2TbceF-95">
          <mxGeometry width="50" height="50" relative="1" as="geometry">
            <mxPoint x="20.019999999999982" y="40" as="sourcePoint" />
            <mxPoint x="0.01999999999998181" y="20" as="targetPoint" />
          </mxGeometry>
        </mxCell>
        <mxCell id="XogMgEZH332ViA2TbceF-98" value="" style="endArrow=none;html=1;rounded=0;" edge="1" parent="XogMgEZH332ViA2TbceF-95">
          <mxGeometry width="50" height="50" relative="1" as="geometry">
            <mxPoint y="40" as="sourcePoint" />
            <mxPoint x="20" y="20" as="targetPoint" />
          </mxGeometry>
        </mxCell>
        <mxCell id="XogMgEZH332ViA2TbceF-100" value="" style="group" vertex="1" connectable="0" parent="1">
          <mxGeometry x="433.99" y="1690" width="20.019999999999982" height="40" as="geometry" />
        </mxCell>
        <mxCell id="XogMgEZH332ViA2TbceF-101" value="" style="endArrow=none;dashed=1;html=1;rounded=0;entryX=0.5;entryY=1;entryDx=0;entryDy=0;" edge="1" parent="XogMgEZH332ViA2TbceF-100" target="XogMgEZH332ViA2TbceF-14">
          <mxGeometry width="50" height="50" relative="1" as="geometry">
            <mxPoint x="10.019999999999982" y="30" as="sourcePoint" />
            <mxPoint x="9.519999999999982" as="targetPoint" />
          </mxGeometry>
        </mxCell>
        <mxCell id="XogMgEZH332ViA2TbceF-102" value="" style="endArrow=none;html=1;rounded=0;" edge="1" parent="XogMgEZH332ViA2TbceF-100">
          <mxGeometry width="50" height="50" relative="1" as="geometry">
            <mxPoint x="20.019999999999982" y="40" as="sourcePoint" />
            <mxPoint x="0.01999999999998181" y="20" as="targetPoint" />
          </mxGeometry>
        </mxCell>
        <mxCell id="XogMgEZH332ViA2TbceF-103" value="" style="endArrow=none;html=1;rounded=0;" edge="1" parent="XogMgEZH332ViA2TbceF-100">
          <mxGeometry width="50" height="50" relative="1" as="geometry">
            <mxPoint y="40" as="sourcePoint" />
            <mxPoint x="20" y="20" as="targetPoint" />
          </mxGeometry>
        </mxCell>
        <mxCell id="XogMgEZH332ViA2TbceF-105" value="" style="group" vertex="1" connectable="0" parent="1">
          <mxGeometry x="580" y="1660" width="20.019999999999982" height="40" as="geometry" />
        </mxCell>
        <mxCell id="XogMgEZH332ViA2TbceF-106" value="" style="endArrow=none;dashed=1;html=1;rounded=0;entryX=0.5;entryY=1;entryDx=0;entryDy=0;" edge="1" parent="XogMgEZH332ViA2TbceF-105" target="XogMgEZH332ViA2TbceF-21">
          <mxGeometry width="50" height="50" relative="1" as="geometry">
            <mxPoint x="10.019999999999982" y="30" as="sourcePoint" />
            <mxPoint x="9.519999999999982" as="targetPoint" />
          </mxGeometry>
        </mxCell>
        <mxCell id="XogMgEZH332ViA2TbceF-107" value="" style="endArrow=none;html=1;rounded=0;" edge="1" parent="XogMgEZH332ViA2TbceF-105">
          <mxGeometry width="50" height="50" relative="1" as="geometry">
            <mxPoint x="20.019999999999982" y="40" as="sourcePoint" />
            <mxPoint x="0.01999999999998181" y="20" as="targetPoint" />
          </mxGeometry>
        </mxCell>
        <mxCell id="XogMgEZH332ViA2TbceF-108" value="" style="endArrow=none;html=1;rounded=0;" edge="1" parent="XogMgEZH332ViA2TbceF-105">
          <mxGeometry width="50" height="50" relative="1" as="geometry">
            <mxPoint y="40" as="sourcePoint" />
            <mxPoint x="20" y="20" as="targetPoint" />
          </mxGeometry>
        </mxCell>
        <mxCell id="XogMgEZH332ViA2TbceF-110" value="" style="group" vertex="1" connectable="0" parent="1">
          <mxGeometry x="270" y="2260" width="20.019999999999982" height="40" as="geometry" />
        </mxCell>
        <mxCell id="XogMgEZH332ViA2TbceF-111" value="" style="endArrow=none;dashed=1;html=1;rounded=0;entryX=1;entryY=0.5;entryDx=0;entryDy=0;" edge="1" parent="XogMgEZH332ViA2TbceF-110" target="XogMgEZH332ViA2TbceF-32">
          <mxGeometry width="50" height="50" relative="1" as="geometry">
            <mxPoint x="10.019999999999982" y="30" as="sourcePoint" />
            <mxPoint x="9.519999999999982" as="targetPoint" />
          </mxGeometry>
        </mxCell>
        <mxCell id="XogMgEZH332ViA2TbceF-112" value="" style="endArrow=none;html=1;rounded=0;" edge="1" parent="XogMgEZH332ViA2TbceF-110">
          <mxGeometry width="50" height="50" relative="1" as="geometry">
            <mxPoint x="20.019999999999982" y="40" as="sourcePoint" />
            <mxPoint x="0.01999999999998181" y="20" as="targetPoint" />
          </mxGeometry>
        </mxCell>
        <mxCell id="XogMgEZH332ViA2TbceF-113" value="" style="endArrow=none;html=1;rounded=0;" edge="1" parent="XogMgEZH332ViA2TbceF-110">
          <mxGeometry width="50" height="50" relative="1" as="geometry">
            <mxPoint y="40" as="sourcePoint" />
            <mxPoint x="20" y="20" as="targetPoint" />
          </mxGeometry>
        </mxCell>
        <mxCell id="XogMgEZH332ViA2TbceF-114" value="" style="group" vertex="1" connectable="0" parent="1">
          <mxGeometry x="433.99" y="2280" width="20.019999999999982" height="40" as="geometry" />
        </mxCell>
        <mxCell id="XogMgEZH332ViA2TbceF-115" value="" style="endArrow=none;dashed=1;html=1;rounded=0;entryX=0.5;entryY=1;entryDx=0;entryDy=0;" edge="1" parent="XogMgEZH332ViA2TbceF-114" target="XogMgEZH332ViA2TbceF-63">
          <mxGeometry width="50" height="50" relative="1" as="geometry">
            <mxPoint x="10.019999999999982" y="30" as="sourcePoint" />
            <mxPoint x="60" y="10" as="targetPoint" />
          </mxGeometry>
        </mxCell>
        <mxCell id="XogMgEZH332ViA2TbceF-116" value="" style="endArrow=none;html=1;rounded=0;" edge="1" parent="XogMgEZH332ViA2TbceF-114">
          <mxGeometry width="50" height="50" relative="1" as="geometry">
            <mxPoint x="20.019999999999982" y="40" as="sourcePoint" />
            <mxPoint x="0.01999999999998181" y="20" as="targetPoint" />
          </mxGeometry>
        </mxCell>
        <mxCell id="XogMgEZH332ViA2TbceF-117" value="" style="endArrow=none;html=1;rounded=0;" edge="1" parent="XogMgEZH332ViA2TbceF-114">
          <mxGeometry width="50" height="50" relative="1" as="geometry">
            <mxPoint y="40" as="sourcePoint" />
            <mxPoint x="20" y="20" as="targetPoint" />
          </mxGeometry>
        </mxCell>
        <mxCell id="XogMgEZH332ViA2TbceF-119" value="Actor" style="shape=umlActor;verticalLabelPosition=bottom;verticalAlign=top;html=1;outlineConnect=0;" vertex="1" parent="1">
          <mxGeometry x="115" y="2510" width="30" height="60" as="geometry" />
        </mxCell>
        <mxCell id="XogMgEZH332ViA2TbceF-120" value="ConfirmaciÃ³n de borrado" style="text;html=1;strokeColor=default;fillColor=none;align=center;verticalAlign=middle;whiteSpace=wrap;rounded=0;" vertex="1" parent="1">
          <mxGeometry x="257.5" y="2460" width="75" height="40" as="geometry" />
        </mxCell>
        <mxCell id="XogMgEZH332ViA2TbceF-121" value="" style="rounded=1;whiteSpace=wrap;html=1;" vertex="1" parent="1">
          <mxGeometry x="455" y="2520" width="10" height="120" as="geometry" />
        </mxCell>
        <mxCell id="XogMgEZH332ViA2TbceF-122" value="" style="rounded=1;whiteSpace=wrap;html=1;" vertex="1" parent="1">
          <mxGeometry x="290" y="2520" width="10" height="180" as="geometry" />
        </mxCell>
        <mxCell id="XogMgEZH332ViA2TbceF-123" style="edgeStyle=none;rounded=0;orthogonalLoop=1;jettySize=auto;html=1;exitX=0;exitY=1;exitDx=0;exitDy=0;fontSize=11;" edge="1" parent="1" source="XogMgEZH332ViA2TbceF-124">
          <mxGeometry relative="1" as="geometry">
            <mxPoint x="305" y="2670" as="targetPoint" />
          </mxGeometry>
        </mxCell>
        <mxCell id="XogMgEZH332ViA2TbceF-124" value="" style="rounded=1;whiteSpace=wrap;html=1;" vertex="1" parent="1">
          <mxGeometry x="625" y="2550" width="10" height="120" as="geometry" />
        </mxCell>
        <mxCell id="XogMgEZH332ViA2TbceF-125" value="&lt;font style=&quot;font-size: 11px;&quot;&gt;Enviar datos a BBDD&lt;/font&gt;" style="text;html=1;strokeColor=none;fillColor=none;align=center;verticalAlign=middle;whiteSpace=wrap;rounded=0;" vertex="1" parent="1">
          <mxGeometry x="325" y="2510" width="90" height="20" as="geometry" />
        </mxCell>
        <mxCell id="XogMgEZH332ViA2TbceF-126" value="&lt;font style=&quot;font-size: 11px;&quot;&gt;ContraseÃ±a de confirmacion&lt;/font&gt;" style="text;html=1;strokeColor=none;fillColor=none;align=center;verticalAlign=middle;whiteSpace=wrap;rounded=0;" vertex="1" parent="1">
          <mxGeometry x="165" y="2510" width="85" height="30" as="geometry" />
        </mxCell>
        <mxCell id="XogMgEZH332ViA2TbceF-127" value="" style="endArrow=classic;html=1;rounded=0;" edge="1" parent="1" source="XogMgEZH332ViA2TbceF-119">
          <mxGeometry width="50" height="50" relative="1" as="geometry">
            <mxPoint x="175" y="2580" as="sourcePoint" />
            <mxPoint x="285" y="2540" as="targetPoint" />
          </mxGeometry>
        </mxCell>
        <mxCell id="XogMgEZH332ViA2TbceF-128" value="" style="endArrow=classic;html=1;rounded=0;" edge="1" parent="1">
          <mxGeometry width="50" height="50" relative="1" as="geometry">
            <mxPoint x="300" y="2539" as="sourcePoint" />
            <mxPoint x="455" y="2540" as="targetPoint" />
          </mxGeometry>
        </mxCell>
        <mxCell id="XogMgEZH332ViA2TbceF-129" value="Base de datos" style="text;html=1;strokeColor=default;fillColor=none;align=center;verticalAlign=middle;whiteSpace=wrap;rounded=0;" vertex="1" parent="1">
          <mxGeometry x="429" y="2460" width="60" height="30" as="geometry" />
        </mxCell>
        <mxCell id="XogMgEZH332ViA2TbceF-130" value="" style="endArrow=classic;html=1;rounded=0;entryX=0;entryY=0.377;entryDx=0;entryDy=0;entryPerimeter=0;" edge="1" parent="1">
          <mxGeometry width="50" height="50" relative="1" as="geometry">
            <mxPoint x="470" y="2560" as="sourcePoint" />
            <mxPoint x="625" y="2560.01" as="targetPoint" />
          </mxGeometry>
        </mxCell>
        <mxCell id="XogMgEZH332ViA2TbceF-131" value="" style="endArrow=none;dashed=1;html=1;rounded=0;fontSize=11;entryX=0.5;entryY=1;entryDx=0;entryDy=0;exitX=0.5;exitY=0;exitDx=0;exitDy=0;" edge="1" parent="1" source="XogMgEZH332ViA2TbceF-122" target="XogMgEZH332ViA2TbceF-120">
          <mxGeometry width="50" height="50" relative="1" as="geometry">
            <mxPoint x="375" y="2680" as="sourcePoint" />
            <mxPoint x="425" y="2630" as="targetPoint" />
          </mxGeometry>
        </mxCell>
        <mxCell id="XogMgEZH332ViA2TbceF-132" value="" style="endArrow=none;dashed=1;html=1;rounded=0;fontSize=11;entryX=0.5;entryY=1;entryDx=0;entryDy=0;exitX=0.5;exitY=0;exitDx=0;exitDy=0;" edge="1" parent="1" source="XogMgEZH332ViA2TbceF-121" target="XogMgEZH332ViA2TbceF-129">
          <mxGeometry width="50" height="50" relative="1" as="geometry">
            <mxPoint x="305" y="2540" as="sourcePoint" />
            <mxPoint x="305" y="2510" as="targetPoint" />
          </mxGeometry>
        </mxCell>
        <mxCell id="XogMgEZH332ViA2TbceF-133" value="" style="endArrow=classic;html=1;rounded=0;" edge="1" parent="1">
          <mxGeometry width="50" height="50" relative="1" as="geometry">
            <mxPoint x="455" y="2605" as="sourcePoint" />
            <mxPoint x="305" y="2605" as="targetPoint" />
          </mxGeometry>
        </mxCell>
        <mxCell id="XogMgEZH332ViA2TbceF-134" value="&lt;span style=&quot;font-size: 11px;&quot;&gt;Cuenta eliminada&lt;/span&gt;" style="text;html=1;strokeColor=none;fillColor=none;align=center;verticalAlign=middle;whiteSpace=wrap;rounded=0;" vertex="1" parent="1">
          <mxGeometry x="335" y="2580" width="90" height="20" as="geometry" />
        </mxCell>
        <mxCell id="XogMgEZH332ViA2TbceF-135" value="Clave = correcto" style="text;html=1;align=center;verticalAlign=middle;resizable=0;points=[];autosize=1;strokeColor=none;fillColor=none;fontSize=11;" vertex="1" parent="1">
          <mxGeometry x="495" y="2530" width="100" height="30" as="geometry" />
        </mxCell>
        <mxCell id="XogMgEZH332ViA2TbceF-136" value="" style="endArrow=classic;html=1;rounded=0;fontSize=11;entryX=0.9;entryY=0.7;entryDx=0;entryDy=0;exitX=-0.2;exitY=0.45;exitDx=0;exitDy=0;exitPerimeter=0;entryPerimeter=0;" edge="1" parent="1" source="XogMgEZH332ViA2TbceF-124" target="XogMgEZH332ViA2TbceF-121">
          <mxGeometry width="50" height="50" relative="1" as="geometry">
            <mxPoint x="375" y="2790" as="sourcePoint" />
            <mxPoint x="425" y="2740" as="targetPoint" />
          </mxGeometry>
        </mxCell>
        <mxCell id="XogMgEZH332ViA2TbceF-137" style="edgeStyle=none;rounded=0;orthogonalLoop=1;jettySize=auto;html=1;entryX=0.5;entryY=1;entryDx=0;entryDy=0;fontSize=11;" edge="1" parent="1" source="XogMgEZH332ViA2TbceF-124" target="XogMgEZH332ViA2TbceF-124">
          <mxGeometry relative="1" as="geometry" />
        </mxCell>
        <mxCell id="XogMgEZH332ViA2TbceF-138" value="Confirmar borrado de cuenta" style="text;html=1;align=center;verticalAlign=middle;resizable=0;points=[];autosize=1;strokeColor=none;fillColor=none;fontSize=11;" vertex="1" parent="1">
          <mxGeometry x="470" y="2575" width="160" height="30" as="geometry" />
        </mxCell>
        <mxCell id="XogMgEZH332ViA2TbceF-139" style="edgeStyle=none;rounded=0;orthogonalLoop=1;jettySize=auto;html=1;entryX=0.25;entryY=1;entryDx=0;entryDy=0;fontSize=11;" edge="1" parent="1" source="XogMgEZH332ViA2TbceF-124" target="XogMgEZH332ViA2TbceF-124">
          <mxGeometry relative="1" as="geometry" />
        </mxCell>
        <mxCell id="XogMgEZH332ViA2TbceF-140" value="Clave incorrecta" style="text;html=1;align=center;verticalAlign=middle;resizable=0;points=[];autosize=1;strokeColor=none;fillColor=none;fontSize=11;" vertex="1" parent="1">
          <mxGeometry x="485" y="2650" width="100" height="30" as="geometry" />
        </mxCell>
        <mxCell id="XogMgEZH332ViA2TbceF-141" value="" style="rounded=0;orthogonalLoop=1;jettySize=auto;html=1;fontSize=11;entryX=0.5;entryY=0;entryDx=0;entryDy=0;dashed=1;endArrow=none;endFill=0;" edge="1" parent="1" source="XogMgEZH332ViA2TbceF-142" target="XogMgEZH332ViA2TbceF-124">
          <mxGeometry relative="1" as="geometry" />
        </mxCell>
        <mxCell id="XogMgEZH332ViA2TbceF-142" value="Programa" style="text;html=1;strokeColor=default;fillColor=default;align=center;verticalAlign=middle;whiteSpace=wrap;rounded=0;" vertex="1" parent="1">
          <mxGeometry x="600" y="2460" width="60" height="30" as="geometry" />
        </mxCell>
        <mxCell id="XogMgEZH332ViA2TbceF-143" value="&lt;span style=&quot;font-size: 11px;&quot;&gt;BORRAR CUENTA&lt;/span&gt;" style="text;html=1;strokeColor=none;fillColor=none;align=center;verticalAlign=middle;whiteSpace=wrap;rounded=0;" vertex="1" parent="1">
          <mxGeometry x="310" y="2390" width="130" height="40" as="geometry" />
        </mxCell>
        <mxCell id="XogMgEZH332ViA2TbceF-144" value="" style="group" vertex="1" connectable="0" parent="1">
          <mxGeometry x="285" y="2700" width="20.019999999999982" height="40" as="geometry" />
        </mxCell>
        <mxCell id="XogMgEZH332ViA2TbceF-145" value="" style="endArrow=none;dashed=1;html=1;rounded=0;" edge="1" parent="XogMgEZH332ViA2TbceF-144">
          <mxGeometry width="50" height="50" relative="1" as="geometry">
            <mxPoint x="10.019999999999982" y="30" as="sourcePoint" />
            <mxPoint x="9.519999999999982" as="targetPoint" />
          </mxGeometry>
        </mxCell>
        <mxCell id="XogMgEZH332ViA2TbceF-146" value="" style="endArrow=none;html=1;rounded=0;" edge="1" parent="XogMgEZH332ViA2TbceF-144">
          <mxGeometry width="50" height="50" relative="1" as="geometry">
            <mxPoint x="20.019999999999982" y="40" as="sourcePoint" />
            <mxPoint x="0.01999999999998181" y="20" as="targetPoint" />
          </mxGeometry>
        </mxCell>
        <mxCell id="XogMgEZH332ViA2TbceF-147" value="" style="endArrow=none;html=1;rounded=0;" edge="1" parent="XogMgEZH332ViA2TbceF-144">
          <mxGeometry width="50" height="50" relative="1" as="geometry">
            <mxPoint y="40" as="sourcePoint" />
            <mxPoint x="20" y="20" as="targetPoint" />
          </mxGeometry>
        </mxCell>
        <mxCell id="XogMgEZH332ViA2TbceF-148" value="" style="group" vertex="1" connectable="0" parent="1">
          <mxGeometry x="619.99" y="2680" width="20.02" height="40" as="geometry" />
        </mxCell>
        <mxCell id="XogMgEZH332ViA2TbceF-149" value="" style="endArrow=none;dashed=1;html=1;rounded=0;entryX=0.5;entryY=1;entryDx=0;entryDy=0;" edge="1" parent="XogMgEZH332ViA2TbceF-148" target="XogMgEZH332ViA2TbceF-124">
          <mxGeometry width="50" height="50" relative="1" as="geometry">
            <mxPoint x="10.01999999999999" y="30" as="sourcePoint" />
            <mxPoint x="50" as="targetPoint" />
          </mxGeometry>
        </mxCell>
        <mxCell id="XogMgEZH332ViA2TbceF-150" value="" style="endArrow=none;html=1;rounded=0;" edge="1" parent="XogMgEZH332ViA2TbceF-148">
          <mxGeometry width="50" height="50" relative="1" as="geometry">
            <mxPoint x="20.02" y="40" as="sourcePoint" />
            <mxPoint x="0.019999999999981827" y="20" as="targetPoint" />
          </mxGeometry>
        </mxCell>
        <mxCell id="XogMgEZH332ViA2TbceF-151" value="" style="endArrow=none;html=1;rounded=0;" edge="1" parent="XogMgEZH332ViA2TbceF-148">
          <mxGeometry width="50" height="50" relative="1" as="geometry">
            <mxPoint y="40" as="sourcePoint" />
            <mxPoint x="20.000000000000018" y="20" as="targetPoint" />
          </mxGeometry>
        </mxCell>
        <mxCell id="XogMgEZH332ViA2TbceF-152" value="" style="group" vertex="1" connectable="0" parent="1">
          <mxGeometry x="450" y="2640" width="20" height="20" as="geometry" />
        </mxCell>
        <mxCell id="XogMgEZH332ViA2TbceF-153" value="" style="endArrow=none;dashed=1;html=1;rounded=0;entryX=0.5;entryY=1;entryDx=0;entryDy=0;" edge="1" parent="XogMgEZH332ViA2TbceF-152" target="XogMgEZH332ViA2TbceF-121">
          <mxGeometry width="50" height="50" relative="1" as="geometry">
            <mxPoint x="10.019999999999982" y="15" as="sourcePoint" />
            <mxPoint x="9.519999999999982" as="targetPoint" />
          </mxGeometry>
        </mxCell>
        <mxCell id="XogMgEZH332ViA2TbceF-154" value="" style="endArrow=none;html=1;rounded=0;" edge="1" parent="XogMgEZH332ViA2TbceF-152">
          <mxGeometry width="50" height="50" relative="1" as="geometry">
            <mxPoint x="20.019999999999982" y="20" as="sourcePoint" />
            <mxPoint x="0.01999999999998181" y="10" as="targetPoint" />
          </mxGeometry>
        </mxCell>
        <mxCell id="XogMgEZH332ViA2TbceF-155" value="" style="endArrow=none;html=1;rounded=0;" edge="1" parent="XogMgEZH332ViA2TbceF-152">
          <mxGeometry width="50" height="50" relative="1" as="geometry">
            <mxPoint y="20" as="sourcePoint" />
            <mxPoint x="20" y="10" as="targetPoint" />
          </mxGeometry>
        </mxCell>
        <mxCell id="XogMgEZH332ViA2TbceF-156" value="Actor" style="shape=umlActor;verticalLabelPosition=bottom;verticalAlign=top;html=1;outlineConnect=0;" vertex="1" parent="1">
          <mxGeometry x="102.5" y="2930" width="30" height="60" as="geometry" />
        </mxCell>
        <mxCell id="XogMgEZH332ViA2TbceF-157" value="ConfirmaciÃ³n de contraseÃ±a" style="text;html=1;strokeColor=default;fillColor=none;align=center;verticalAlign=middle;whiteSpace=wrap;rounded=0;" vertex="1" parent="1">
          <mxGeometry x="238.76" y="2880" width="87.5" height="40" as="geometry" />
        </mxCell>
        <mxCell id="XogMgEZH332ViA2TbceF-158" value="" style="rounded=1;whiteSpace=wrap;html=1;" vertex="1" parent="1">
          <mxGeometry x="442.5" y="2940" width="10" height="60" as="geometry" />
        </mxCell>
        <mxCell id="XogMgEZH332ViA2TbceF-159" value="" style="rounded=1;whiteSpace=wrap;html=1;" vertex="1" parent="1">
          <mxGeometry x="277.5" y="2940" width="10" height="310" as="geometry" />
        </mxCell>
        <mxCell id="XogMgEZH332ViA2TbceF-160" style="edgeStyle=none;rounded=0;orthogonalLoop=1;jettySize=auto;html=1;exitX=0;exitY=1;exitDx=0;exitDy=0;fontSize=11;entryX=1.524;entryY=0.901;entryDx=0;entryDy=0;entryPerimeter=0;" edge="1" parent="1" source="XogMgEZH332ViA2TbceF-161" target="XogMgEZH332ViA2TbceF-159">
          <mxGeometry relative="1" as="geometry">
            <mxPoint x="292.5" y="3090" as="targetPoint" />
          </mxGeometry>
        </mxCell>
        <mxCell id="XogMgEZH332ViA2TbceF-161" value="" style="rounded=1;whiteSpace=wrap;html=1;" vertex="1" parent="1">
          <mxGeometry x="612.5" y="2970" width="10" height="250" as="geometry" />
        </mxCell>
        <mxCell id="XogMgEZH332ViA2TbceF-162" value="&lt;font style=&quot;font-size: 11px;&quot;&gt;Enviar datos a BBDD&lt;/font&gt;" style="text;html=1;strokeColor=none;fillColor=none;align=center;verticalAlign=middle;whiteSpace=wrap;rounded=0;" vertex="1" parent="1">
          <mxGeometry x="312.5" y="2930" width="90" height="20" as="geometry" />
        </mxCell>
        <mxCell id="XogMgEZH332ViA2TbceF-163" value="&lt;font style=&quot;font-size: 11px;&quot;&gt;ContraseÃ±a de confirmacion&lt;/font&gt;" style="text;html=1;strokeColor=none;fillColor=none;align=center;verticalAlign=middle;whiteSpace=wrap;rounded=0;" vertex="1" parent="1">
          <mxGeometry x="152.5" y="2930" width="85" height="30" as="geometry" />
        </mxCell>
        <mxCell id="XogMgEZH332ViA2TbceF-164" value="" style="endArrow=classic;html=1;rounded=0;" edge="1" parent="1" source="XogMgEZH332ViA2TbceF-156">
          <mxGeometry width="50" height="50" relative="1" as="geometry">
            <mxPoint x="162.5" y="3000" as="sourcePoint" />
            <mxPoint x="272.5" y="2960" as="targetPoint" />
          </mxGeometry>
        </mxCell>
        <mxCell id="XogMgEZH332ViA2TbceF-165" value="" style="endArrow=classic;html=1;rounded=0;" edge="1" parent="1">
          <mxGeometry width="50" height="50" relative="1" as="geometry">
            <mxPoint x="287.5" y="2959" as="sourcePoint" />
            <mxPoint x="442.5" y="2960" as="targetPoint" />
          </mxGeometry>
        </mxCell>
        <mxCell id="XogMgEZH332ViA2TbceF-166" value="Base de datos" style="text;html=1;strokeColor=default;fillColor=none;align=center;verticalAlign=middle;whiteSpace=wrap;rounded=0;" vertex="1" parent="1">
          <mxGeometry x="416.5" y="2880" width="60" height="30" as="geometry" />
        </mxCell>
        <mxCell id="XogMgEZH332ViA2TbceF-167" value="" style="endArrow=classic;html=1;rounded=0;entryX=0;entryY=0.377;entryDx=0;entryDy=0;entryPerimeter=0;" edge="1" parent="1">
          <mxGeometry width="50" height="50" relative="1" as="geometry">
            <mxPoint x="457.5" y="2980" as="sourcePoint" />
            <mxPoint x="612.5" y="2980.01" as="targetPoint" />
          </mxGeometry>
        </mxCell>
        <mxCell id="XogMgEZH332ViA2TbceF-168" value="" style="endArrow=none;dashed=1;html=1;rounded=0;fontSize=11;entryX=0.5;entryY=1;entryDx=0;entryDy=0;exitX=0.5;exitY=0;exitDx=0;exitDy=0;" edge="1" parent="1" source="XogMgEZH332ViA2TbceF-159" target="XogMgEZH332ViA2TbceF-157">
          <mxGeometry width="50" height="50" relative="1" as="geometry">
            <mxPoint x="362.5" y="3100" as="sourcePoint" />
            <mxPoint x="412.5" y="3050" as="targetPoint" />
          </mxGeometry>
        </mxCell>
        <mxCell id="XogMgEZH332ViA2TbceF-169" value="" style="endArrow=none;dashed=1;html=1;rounded=0;fontSize=11;entryX=0.5;entryY=1;entryDx=0;entryDy=0;exitX=0.5;exitY=0;exitDx=0;exitDy=0;" edge="1" parent="1" source="XogMgEZH332ViA2TbceF-158" target="XogMgEZH332ViA2TbceF-166">
          <mxGeometry width="50" height="50" relative="1" as="geometry">
            <mxPoint x="292.5" y="2960" as="sourcePoint" />
            <mxPoint x="292.5" y="2930" as="targetPoint" />
          </mxGeometry>
        </mxCell>
        <mxCell id="XogMgEZH332ViA2TbceF-172" value="Clave = correcto" style="text;html=1;align=center;verticalAlign=middle;resizable=0;points=[];autosize=1;strokeColor=none;fillColor=none;fontSize=11;" vertex="1" parent="1">
          <mxGeometry x="482.5" y="2950" width="100" height="30" as="geometry" />
        </mxCell>
        <mxCell id="XogMgEZH332ViA2TbceF-173" value="" style="endArrow=classic;html=1;rounded=0;fontSize=11;entryX=1.355;entryY=0.462;entryDx=0;entryDy=0;exitX=-0.2;exitY=0.45;exitDx=0;exitDy=0;exitPerimeter=0;entryPerimeter=0;" edge="1" parent="1" source="XogMgEZH332ViA2TbceF-161" target="XogMgEZH332ViA2TbceF-159">
          <mxGeometry width="50" height="50" relative="1" as="geometry">
            <mxPoint x="362.5" y="3210" as="sourcePoint" />
            <mxPoint x="412.5" y="3160" as="targetPoint" />
          </mxGeometry>
        </mxCell>
        <mxCell id="XogMgEZH332ViA2TbceF-174" style="edgeStyle=none;rounded=0;orthogonalLoop=1;jettySize=auto;html=1;entryX=0.5;entryY=1;entryDx=0;entryDy=0;fontSize=11;" edge="1" parent="1" source="XogMgEZH332ViA2TbceF-161" target="XogMgEZH332ViA2TbceF-161">
          <mxGeometry relative="1" as="geometry" />
        </mxCell>
        <mxCell id="XogMgEZH332ViA2TbceF-175" value="Confirmar&amp;nbsp; cambio de clave" style="text;html=1;align=center;verticalAlign=middle;resizable=0;points=[];autosize=1;strokeColor=none;fillColor=none;fontSize=11;" vertex="1" parent="1">
          <mxGeometry x="460" y="3050" width="160" height="30" as="geometry" />
        </mxCell>
        <mxCell id="XogMgEZH332ViA2TbceF-176" style="edgeStyle=none;rounded=0;orthogonalLoop=1;jettySize=auto;html=1;entryX=0.25;entryY=1;entryDx=0;entryDy=0;fontSize=11;" edge="1" parent="1" source="XogMgEZH332ViA2TbceF-161" target="XogMgEZH332ViA2TbceF-161">
          <mxGeometry relative="1" as="geometry" />
        </mxCell>
        <mxCell id="XogMgEZH332ViA2TbceF-177" value="Clave incorrecta" style="text;html=1;align=center;verticalAlign=middle;resizable=0;points=[];autosize=1;strokeColor=none;fillColor=none;fontSize=11;" vertex="1" parent="1">
          <mxGeometry x="507.49" y="3190" width="100" height="30" as="geometry" />
        </mxCell>
        <mxCell id="XogMgEZH332ViA2TbceF-178" value="" style="rounded=0;orthogonalLoop=1;jettySize=auto;html=1;fontSize=11;entryX=0.5;entryY=0;entryDx=0;entryDy=0;dashed=1;endArrow=none;endFill=0;" edge="1" parent="1" source="XogMgEZH332ViA2TbceF-179" target="XogMgEZH332ViA2TbceF-161">
          <mxGeometry relative="1" as="geometry" />
        </mxCell>
        <mxCell id="XogMgEZH332ViA2TbceF-179" value="Programa" style="text;html=1;strokeColor=default;fillColor=default;align=center;verticalAlign=middle;whiteSpace=wrap;rounded=0;" vertex="1" parent="1">
          <mxGeometry x="587.5" y="2880" width="60" height="30" as="geometry" />
        </mxCell>
        <mxCell id="XogMgEZH332ViA2TbceF-180" value="&lt;span style=&quot;font-size: 11px;&quot;&gt;CAMBIAR CLAVE&lt;/span&gt;" style="text;html=1;strokeColor=none;fillColor=none;align=center;verticalAlign=middle;whiteSpace=wrap;rounded=0;" vertex="1" parent="1">
          <mxGeometry x="297.5" y="2810" width="130" height="40" as="geometry" />
        </mxCell>
        <mxCell id="XogMgEZH332ViA2TbceF-181" value="" style="group" vertex="1" connectable="0" parent="1">
          <mxGeometry x="272.5" y="3250" width="20.019999999999982" height="40" as="geometry" />
        </mxCell>
        <mxCell id="XogMgEZH332ViA2TbceF-182" value="" style="endArrow=none;dashed=1;html=1;rounded=0;" edge="1" parent="XogMgEZH332ViA2TbceF-181">
          <mxGeometry width="50" height="50" relative="1" as="geometry">
            <mxPoint x="10.019999999999982" y="30" as="sourcePoint" />
            <mxPoint x="9.519999999999982" as="targetPoint" />
          </mxGeometry>
        </mxCell>
        <mxCell id="XogMgEZH332ViA2TbceF-183" value="" style="endArrow=none;html=1;rounded=0;" edge="1" parent="XogMgEZH332ViA2TbceF-181">
          <mxGeometry width="50" height="50" relative="1" as="geometry">
            <mxPoint x="20.019999999999982" y="40" as="sourcePoint" />
            <mxPoint x="0.01999999999998181" y="20" as="targetPoint" />
          </mxGeometry>
        </mxCell>
        <mxCell id="XogMgEZH332ViA2TbceF-184" value="" style="endArrow=none;html=1;rounded=0;" edge="1" parent="XogMgEZH332ViA2TbceF-181">
          <mxGeometry width="50" height="50" relative="1" as="geometry">
            <mxPoint y="40" as="sourcePoint" />
            <mxPoint x="20" y="20" as="targetPoint" />
          </mxGeometry>
        </mxCell>
        <mxCell id="XogMgEZH332ViA2TbceF-185" value="" style="group" vertex="1" connectable="0" parent="1">
          <mxGeometry x="607.49" y="3240" width="20.02" height="40" as="geometry" />
        </mxCell>
        <mxCell id="XogMgEZH332ViA2TbceF-186" value="" style="endArrow=none;dashed=1;html=1;rounded=0;entryX=0.5;entryY=1;entryDx=0;entryDy=0;" edge="1" parent="XogMgEZH332ViA2TbceF-185" target="XogMgEZH332ViA2TbceF-161">
          <mxGeometry width="50" height="50" relative="1" as="geometry">
            <mxPoint x="10.01999999999999" y="30" as="sourcePoint" />
            <mxPoint x="50" as="targetPoint" />
          </mxGeometry>
        </mxCell>
        <mxCell id="XogMgEZH332ViA2TbceF-187" value="" style="endArrow=none;html=1;rounded=0;" edge="1" parent="XogMgEZH332ViA2TbceF-185">
          <mxGeometry width="50" height="50" relative="1" as="geometry">
            <mxPoint x="20.02" y="40" as="sourcePoint" />
            <mxPoint x="0.019999999999981827" y="20" as="targetPoint" />
          </mxGeometry>
        </mxCell>
        <mxCell id="XogMgEZH332ViA2TbceF-188" value="" style="endArrow=none;html=1;rounded=0;" edge="1" parent="XogMgEZH332ViA2TbceF-185">
          <mxGeometry width="50" height="50" relative="1" as="geometry">
            <mxPoint y="40" as="sourcePoint" />
            <mxPoint x="20.000000000000018" y="20" as="targetPoint" />
          </mxGeometry>
        </mxCell>
        <mxCell id="XogMgEZH332ViA2TbceF-195" value="" style="rounded=1;whiteSpace=wrap;html=1;" vertex="1" parent="1">
          <mxGeometry x="442.5" y="3100" width="10" height="60" as="geometry" />
        </mxCell>
        <mxCell id="XogMgEZH332ViA2TbceF-196" value="" style="endArrow=none;dashed=1;html=1;rounded=0;entryX=0.5;entryY=1;entryDx=0;entryDy=0;exitX=0.5;exitY=0;exitDx=0;exitDy=0;" edge="1" parent="1" source="XogMgEZH332ViA2TbceF-195" target="XogMgEZH332ViA2TbceF-158">
          <mxGeometry width="50" height="50" relative="1" as="geometry">
            <mxPoint x="380" y="3090" as="sourcePoint" />
            <mxPoint x="430" y="3040" as="targetPoint" />
          </mxGeometry>
        </mxCell>
        <mxCell id="XogMgEZH332ViA2TbceF-197" value="" style="endArrow=classic;html=1;rounded=0;entryX=0;entryY=0.5;entryDx=0;entryDy=0;" edge="1" parent="1" target="XogMgEZH332ViA2TbceF-195">
          <mxGeometry width="50" height="50" relative="1" as="geometry">
            <mxPoint x="290" y="3130" as="sourcePoint" />
            <mxPoint x="430" y="3040" as="targetPoint" />
          </mxGeometry>
        </mxCell>
        <mxCell id="XogMgEZH332ViA2TbceF-198" value="&lt;font style=&quot;font-size: 11px;&quot;&gt;Nueva clave almacenada en la base de datos&lt;/font&gt;" style="text;html=1;strokeColor=none;fillColor=none;align=center;verticalAlign=middle;whiteSpace=wrap;rounded=0;" vertex="1" parent="1">
          <mxGeometry x="306.25" y="3120" width="130" height="60" as="geometry" />
        </mxCell>
        <mxCell id="XogMgEZH332ViA2TbceF-199" value="" style="group" vertex="1" connectable="0" parent="1">
          <mxGeometry x="440" y="3160" width="20.019999999999982" height="40" as="geometry" />
        </mxCell>
        <mxCell id="XogMgEZH332ViA2TbceF-200" value="" style="endArrow=none;dashed=1;html=1;rounded=0;" edge="1" parent="XogMgEZH332ViA2TbceF-199">
          <mxGeometry width="50" height="50" relative="1" as="geometry">
            <mxPoint x="10.019999999999982" y="30" as="sourcePoint" />
            <mxPoint x="9.519999999999982" as="targetPoint" />
          </mxGeometry>
        </mxCell>
        <mxCell id="XogMgEZH332ViA2TbceF-201" value="" style="endArrow=none;html=1;rounded=0;" edge="1" parent="XogMgEZH332ViA2TbceF-199">
          <mxGeometry width="50" height="50" relative="1" as="geometry">
            <mxPoint x="20.019999999999982" y="40" as="sourcePoint" />
            <mxPoint x="0.01999999999998181" y="20" as="targetPoint" />
          </mxGeometry>
        </mxCell>
        <mxCell id="XogMgEZH332ViA2TbceF-202" value="" style="endArrow=none;html=1;rounded=0;" edge="1" parent="XogMgEZH332ViA2TbceF-199">
          <mxGeometry width="50" height="50" relative="1" as="geometry">
            <mxPoint y="40" as="sourcePoint" />
            <mxPoint x="20" y="20" as="targetPoint" />
          </mxGeometry>
        </mxCell>
        <mxCell id="XogMgEZH332ViA2TbceF-203" value="Actor" style="shape=umlActor;verticalLabelPosition=bottom;verticalAlign=top;html=1;outlineConnect=0;" vertex="1" parent="1">
          <mxGeometry x="100" y="3470" width="30" height="60" as="geometry" />
        </mxCell>
        <mxCell id="XogMgEZH332ViA2TbceF-204" value="Cambio de nombre" style="text;html=1;strokeColor=default;fillColor=none;align=center;verticalAlign=middle;whiteSpace=wrap;rounded=0;" vertex="1" parent="1">
          <mxGeometry x="245" y="3420" width="70" height="40" as="geometry" />
        </mxCell>
        <mxCell id="XogMgEZH332ViA2TbceF-205" value="" style="rounded=1;whiteSpace=wrap;html=1;" vertex="1" parent="1">
          <mxGeometry x="440" y="3480" width="10" height="60" as="geometry" />
        </mxCell>
        <mxCell id="XogMgEZH332ViA2TbceF-206" value="" style="rounded=1;whiteSpace=wrap;html=1;" vertex="1" parent="1">
          <mxGeometry x="275" y="3480" width="10" height="310" as="geometry" />
        </mxCell>
        <mxCell id="XogMgEZH332ViA2TbceF-207" style="edgeStyle=none;rounded=0;orthogonalLoop=1;jettySize=auto;html=1;exitX=0;exitY=1;exitDx=0;exitDy=0;fontSize=11;entryX=1.524;entryY=0.901;entryDx=0;entryDy=0;entryPerimeter=0;" edge="1" parent="1" source="XogMgEZH332ViA2TbceF-208" target="XogMgEZH332ViA2TbceF-206">
          <mxGeometry relative="1" as="geometry">
            <mxPoint x="290" y="3630" as="targetPoint" />
          </mxGeometry>
        </mxCell>
        <mxCell id="XogMgEZH332ViA2TbceF-208" value="" style="rounded=1;whiteSpace=wrap;html=1;" vertex="1" parent="1">
          <mxGeometry x="610" y="3510" width="10" height="250" as="geometry" />
        </mxCell>
        <mxCell id="XogMgEZH332ViA2TbceF-209" value="&lt;font style=&quot;font-size: 11px;&quot;&gt;Enviar datos a BBDD&lt;/font&gt;" style="text;html=1;strokeColor=none;fillColor=none;align=center;verticalAlign=middle;whiteSpace=wrap;rounded=0;" vertex="1" parent="1">
          <mxGeometry x="310" y="3470" width="90" height="20" as="geometry" />
        </mxCell>
        <mxCell id="XogMgEZH332ViA2TbceF-210" value="&lt;font style=&quot;font-size: 11px;&quot;&gt;Nuevo nombre de usuario&lt;/font&gt;" style="text;html=1;strokeColor=none;fillColor=none;align=center;verticalAlign=middle;whiteSpace=wrap;rounded=0;" vertex="1" parent="1">
          <mxGeometry x="150" y="3470" width="85" height="30" as="geometry" />
        </mxCell>
        <mxCell id="XogMgEZH332ViA2TbceF-211" value="" style="endArrow=classic;html=1;rounded=0;" edge="1" parent="1" source="XogMgEZH332ViA2TbceF-203">
          <mxGeometry width="50" height="50" relative="1" as="geometry">
            <mxPoint x="160" y="3540" as="sourcePoint" />
            <mxPoint x="270" y="3500" as="targetPoint" />
          </mxGeometry>
        </mxCell>
        <mxCell id="XogMgEZH332ViA2TbceF-212" value="" style="endArrow=classic;html=1;rounded=0;" edge="1" parent="1">
          <mxGeometry width="50" height="50" relative="1" as="geometry">
            <mxPoint x="285" y="3499" as="sourcePoint" />
            <mxPoint x="440" y="3500" as="targetPoint" />
          </mxGeometry>
        </mxCell>
        <mxCell id="XogMgEZH332ViA2TbceF-213" value="Base de datos" style="text;html=1;strokeColor=default;fillColor=none;align=center;verticalAlign=middle;whiteSpace=wrap;rounded=0;" vertex="1" parent="1">
          <mxGeometry x="414" y="3420" width="60" height="30" as="geometry" />
        </mxCell>
        <mxCell id="XogMgEZH332ViA2TbceF-214" value="" style="endArrow=classic;html=1;rounded=0;entryX=0;entryY=0.377;entryDx=0;entryDy=0;entryPerimeter=0;" edge="1" parent="1">
          <mxGeometry width="50" height="50" relative="1" as="geometry">
            <mxPoint x="455" y="3520" as="sourcePoint" />
            <mxPoint x="610" y="3520.01" as="targetPoint" />
          </mxGeometry>
        </mxCell>
        <mxCell id="XogMgEZH332ViA2TbceF-215" value="" style="endArrow=none;dashed=1;html=1;rounded=0;fontSize=11;entryX=0.5;entryY=1;entryDx=0;entryDy=0;exitX=0.5;exitY=0;exitDx=0;exitDy=0;" edge="1" parent="1" source="XogMgEZH332ViA2TbceF-206" target="XogMgEZH332ViA2TbceF-204">
          <mxGeometry width="50" height="50" relative="1" as="geometry">
            <mxPoint x="360" y="3640" as="sourcePoint" />
            <mxPoint x="410" y="3590" as="targetPoint" />
          </mxGeometry>
        </mxCell>
        <mxCell id="XogMgEZH332ViA2TbceF-216" value="" style="endArrow=none;dashed=1;html=1;rounded=0;fontSize=11;entryX=0.5;entryY=1;entryDx=0;entryDy=0;exitX=0.5;exitY=0;exitDx=0;exitDy=0;" edge="1" parent="1" source="XogMgEZH332ViA2TbceF-205" target="XogMgEZH332ViA2TbceF-213">
          <mxGeometry width="50" height="50" relative="1" as="geometry">
            <mxPoint x="290" y="3500" as="sourcePoint" />
            <mxPoint x="290" y="3470" as="targetPoint" />
          </mxGeometry>
        </mxCell>
        <mxCell id="XogMgEZH332ViA2TbceF-218" value="" style="endArrow=classic;html=1;rounded=0;fontSize=11;entryX=1.355;entryY=0.462;entryDx=0;entryDy=0;exitX=-0.2;exitY=0.45;exitDx=0;exitDy=0;exitPerimeter=0;entryPerimeter=0;" edge="1" parent="1" source="XogMgEZH332ViA2TbceF-208" target="XogMgEZH332ViA2TbceF-206">
          <mxGeometry width="50" height="50" relative="1" as="geometry">
            <mxPoint x="360" y="3750" as="sourcePoint" />
            <mxPoint x="410" y="3700" as="targetPoint" />
          </mxGeometry>
        </mxCell>
        <mxCell id="XogMgEZH332ViA2TbceF-219" style="edgeStyle=none;rounded=0;orthogonalLoop=1;jettySize=auto;html=1;entryX=0.5;entryY=1;entryDx=0;entryDy=0;fontSize=11;" edge="1" parent="1" source="XogMgEZH332ViA2TbceF-208" target="XogMgEZH332ViA2TbceF-208">
          <mxGeometry relative="1" as="geometry" />
        </mxCell>
        <mxCell id="XogMgEZH332ViA2TbceF-220" value="Confirmar&amp;nbsp; cambio de nombre" style="text;html=1;align=center;verticalAlign=middle;resizable=0;points=[];autosize=1;strokeColor=none;fillColor=none;fontSize=11;" vertex="1" parent="1">
          <mxGeometry x="452.5" y="3590" width="170" height="30" as="geometry" />
        </mxCell>
        <mxCell id="XogMgEZH332ViA2TbceF-221" style="edgeStyle=none;rounded=0;orthogonalLoop=1;jettySize=auto;html=1;entryX=0.25;entryY=1;entryDx=0;entryDy=0;fontSize=11;" edge="1" parent="1" source="XogMgEZH332ViA2TbceF-208" target="XogMgEZH332ViA2TbceF-208">
          <mxGeometry relative="1" as="geometry" />
        </mxCell>
        <mxCell id="XogMgEZH332ViA2TbceF-222" value="Nombre ya utilizado" style="text;html=1;align=center;verticalAlign=middle;resizable=0;points=[];autosize=1;strokeColor=none;fillColor=none;fontSize=11;" vertex="1" parent="1">
          <mxGeometry x="494.99" y="3730" width="120" height="30" as="geometry" />
        </mxCell>
        <mxCell id="XogMgEZH332ViA2TbceF-223" value="" style="rounded=0;orthogonalLoop=1;jettySize=auto;html=1;fontSize=11;entryX=0.5;entryY=0;entryDx=0;entryDy=0;dashed=1;endArrow=none;endFill=0;" edge="1" parent="1" source="XogMgEZH332ViA2TbceF-224" target="XogMgEZH332ViA2TbceF-208">
          <mxGeometry relative="1" as="geometry" />
        </mxCell>
        <mxCell id="XogMgEZH332ViA2TbceF-224" value="Programa" style="text;html=1;strokeColor=default;fillColor=default;align=center;verticalAlign=middle;whiteSpace=wrap;rounded=0;" vertex="1" parent="1">
          <mxGeometry x="585" y="3420" width="60" height="30" as="geometry" />
        </mxCell>
        <mxCell id="XogMgEZH332ViA2TbceF-225" value="&lt;span style=&quot;font-size: 11px;&quot;&gt;CAMBIAR NOMBRE USUARIO&lt;/span&gt;" style="text;html=1;strokeColor=none;fillColor=none;align=center;verticalAlign=middle;whiteSpace=wrap;rounded=0;" vertex="1" parent="1">
          <mxGeometry x="284" y="3360" width="130" height="40" as="geometry" />
        </mxCell>
        <mxCell id="XogMgEZH332ViA2TbceF-226" value="" style="group" vertex="1" connectable="0" parent="1">
          <mxGeometry x="270" y="3790" width="20.019999999999982" height="40" as="geometry" />
        </mxCell>
        <mxCell id="XogMgEZH332ViA2TbceF-227" value="" style="endArrow=none;dashed=1;html=1;rounded=0;" edge="1" parent="XogMgEZH332ViA2TbceF-226">
          <mxGeometry width="50" height="50" relative="1" as="geometry">
            <mxPoint x="10.019999999999982" y="30" as="sourcePoint" />
            <mxPoint x="9.519999999999982" as="targetPoint" />
          </mxGeometry>
        </mxCell>
        <mxCell id="XogMgEZH332ViA2TbceF-228" value="" style="endArrow=none;html=1;rounded=0;" edge="1" parent="XogMgEZH332ViA2TbceF-226">
          <mxGeometry width="50" height="50" relative="1" as="geometry">
            <mxPoint x="20.019999999999982" y="40" as="sourcePoint" />
            <mxPoint x="0.01999999999998181" y="20" as="targetPoint" />
          </mxGeometry>
        </mxCell>
        <mxCell id="XogMgEZH332ViA2TbceF-229" value="" style="endArrow=none;html=1;rounded=0;" edge="1" parent="XogMgEZH332ViA2TbceF-226">
          <mxGeometry width="50" height="50" relative="1" as="geometry">
            <mxPoint y="40" as="sourcePoint" />
            <mxPoint x="20" y="20" as="targetPoint" />
          </mxGeometry>
        </mxCell>
        <mxCell id="XogMgEZH332ViA2TbceF-230" value="" style="group" vertex="1" connectable="0" parent="1">
          <mxGeometry x="604.99" y="3780" width="20.02" height="40" as="geometry" />
        </mxCell>
        <mxCell id="XogMgEZH332ViA2TbceF-231" value="" style="endArrow=none;dashed=1;html=1;rounded=0;entryX=0.5;entryY=1;entryDx=0;entryDy=0;" edge="1" parent="XogMgEZH332ViA2TbceF-230" target="XogMgEZH332ViA2TbceF-208">
          <mxGeometry width="50" height="50" relative="1" as="geometry">
            <mxPoint x="10.01999999999999" y="30" as="sourcePoint" />
            <mxPoint x="50" as="targetPoint" />
          </mxGeometry>
        </mxCell>
        <mxCell id="XogMgEZH332ViA2TbceF-232" value="" style="endArrow=none;html=1;rounded=0;" edge="1" parent="XogMgEZH332ViA2TbceF-230">
          <mxGeometry width="50" height="50" relative="1" as="geometry">
            <mxPoint x="20.02" y="40" as="sourcePoint" />
            <mxPoint x="0.019999999999981827" y="20" as="targetPoint" />
          </mxGeometry>
        </mxCell>
        <mxCell id="XogMgEZH332ViA2TbceF-233" value="" style="endArrow=none;html=1;rounded=0;" edge="1" parent="XogMgEZH332ViA2TbceF-230">
          <mxGeometry width="50" height="50" relative="1" as="geometry">
            <mxPoint y="40" as="sourcePoint" />
            <mxPoint x="20.000000000000018" y="20" as="targetPoint" />
          </mxGeometry>
        </mxCell>
        <mxCell id="XogMgEZH332ViA2TbceF-234" value="" style="rounded=1;whiteSpace=wrap;html=1;" vertex="1" parent="1">
          <mxGeometry x="440" y="3640" width="10" height="60" as="geometry" />
        </mxCell>
        <mxCell id="XogMgEZH332ViA2TbceF-235" value="" style="endArrow=none;dashed=1;html=1;rounded=0;entryX=0.5;entryY=1;entryDx=0;entryDy=0;exitX=0.5;exitY=0;exitDx=0;exitDy=0;" edge="1" parent="1" source="XogMgEZH332ViA2TbceF-234" target="XogMgEZH332ViA2TbceF-205">
          <mxGeometry width="50" height="50" relative="1" as="geometry">
            <mxPoint x="377.5" y="3630" as="sourcePoint" />
            <mxPoint x="427.5" y="3580" as="targetPoint" />
          </mxGeometry>
        </mxCell>
        <mxCell id="XogMgEZH332ViA2TbceF-236" value="" style="endArrow=classic;html=1;rounded=0;entryX=0;entryY=0.5;entryDx=0;entryDy=0;" edge="1" parent="1" target="XogMgEZH332ViA2TbceF-234">
          <mxGeometry width="50" height="50" relative="1" as="geometry">
            <mxPoint x="287.5" y="3670" as="sourcePoint" />
            <mxPoint x="427.5" y="3580" as="targetPoint" />
          </mxGeometry>
        </mxCell>
        <mxCell id="XogMgEZH332ViA2TbceF-237" value="&lt;font style=&quot;font-size: 11px;&quot;&gt;Nueva nombre almacenado en la base de datos&lt;/font&gt;" style="text;html=1;strokeColor=none;fillColor=none;align=center;verticalAlign=middle;whiteSpace=wrap;rounded=0;" vertex="1" parent="1">
          <mxGeometry x="299" y="3670" width="130" height="60" as="geometry" />
        </mxCell>
        <mxCell id="XogMgEZH332ViA2TbceF-238" value="" style="group" vertex="1" connectable="0" parent="1">
          <mxGeometry x="437.5" y="3700" width="20.019999999999982" height="40" as="geometry" />
        </mxCell>
        <mxCell id="XogMgEZH332ViA2TbceF-239" value="" style="endArrow=none;dashed=1;html=1;rounded=0;" edge="1" parent="XogMgEZH332ViA2TbceF-238">
          <mxGeometry width="50" height="50" relative="1" as="geometry">
            <mxPoint x="10.019999999999982" y="30" as="sourcePoint" />
            <mxPoint x="9.519999999999982" as="targetPoint" />
          </mxGeometry>
        </mxCell>
        <mxCell id="XogMgEZH332ViA2TbceF-240" value="" style="endArrow=none;html=1;rounded=0;" edge="1" parent="XogMgEZH332ViA2TbceF-238">
          <mxGeometry width="50" height="50" relative="1" as="geometry">
            <mxPoint x="20.019999999999982" y="40" as="sourcePoint" />
            <mxPoint x="0.01999999999998181" y="20" as="targetPoint" />
          </mxGeometry>
        </mxCell>
        <mxCell id="XogMgEZH332ViA2TbceF-241" value="" style="endArrow=none;html=1;rounded=0;" edge="1" parent="XogMgEZH332ViA2TbceF-238">
          <mxGeometry width="50" height="50" relative="1" as="geometry">
            <mxPoint y="40" as="sourcePoint" />
            <mxPoint x="20" y="20" as="targetPoint" />
          </mxGeometry>
        </mxCell>
        <mxCell id="XogMgEZH332ViA2TbceF-243" value="&lt;font style=&quot;font-size: 11px;&quot;&gt;Confirmar que el nuevo nombre no existe&lt;/font&gt;" style="text;html=1;strokeColor=none;fillColor=none;align=center;verticalAlign=middle;whiteSpace=wrap;rounded=0;" vertex="1" parent="1">
          <mxGeometry x="470" y="3470" width="120" height="45" as="geometry" />
        </mxCell>
        <mxCell id="XogMgEZH332ViA2TbceF-244" value="Actor" style="shape=umlActor;verticalLabelPosition=bottom;verticalAlign=top;html=1;outlineConnect=0;" vertex="1" parent="1">
          <mxGeometry x="98.75" y="4000" width="30" height="60" as="geometry" />
        </mxCell>
        <mxCell id="XogMgEZH332ViA2TbceF-245" value="SelecciÃ³n de dificultad" style="text;html=1;strokeColor=default;fillColor=none;align=center;verticalAlign=middle;whiteSpace=wrap;rounded=0;" vertex="1" parent="1">
          <mxGeometry x="244.38" y="3950" width="68.75" height="40" as="geometry" />
        </mxCell>
        <mxCell id="XogMgEZH332ViA2TbceF-247" value="" style="rounded=1;whiteSpace=wrap;html=1;" vertex="1" parent="1">
          <mxGeometry x="273.75" y="4010" width="10" height="40" as="geometry" />
        </mxCell>
        <mxCell id="XogMgEZH332ViA2TbceF-250" value="&lt;font style=&quot;font-size: 11px;&quot;&gt;Dificultad seleccionad&lt;/font&gt;" style="text;html=1;strokeColor=none;fillColor=none;align=center;verticalAlign=middle;whiteSpace=wrap;rounded=0;" vertex="1" parent="1">
          <mxGeometry x="308.75" y="4000" width="90" height="20" as="geometry" />
        </mxCell>
        <mxCell id="XogMgEZH332ViA2TbceF-251" value="&lt;font style=&quot;font-size: 11px;&quot;&gt;Jugar una partida&lt;/font&gt;" style="text;html=1;strokeColor=none;fillColor=none;align=center;verticalAlign=middle;whiteSpace=wrap;rounded=0;" vertex="1" parent="1">
          <mxGeometry x="148.75" y="4000" width="85" height="30" as="geometry" />
        </mxCell>
        <mxCell id="XogMgEZH332ViA2TbceF-252" value="" style="endArrow=classic;html=1;rounded=0;" edge="1" parent="1" source="XogMgEZH332ViA2TbceF-244">
          <mxGeometry width="50" height="50" relative="1" as="geometry">
            <mxPoint x="158.75" y="4070" as="sourcePoint" />
            <mxPoint x="268.75" y="4030" as="targetPoint" />
          </mxGeometry>
        </mxCell>
        <mxCell id="XogMgEZH332ViA2TbceF-253" value="" style="endArrow=classic;html=1;rounded=0;" edge="1" parent="1">
          <mxGeometry width="50" height="50" relative="1" as="geometry">
            <mxPoint x="283.75" y="4029" as="sourcePoint" />
            <mxPoint x="410" y="4029" as="targetPoint" />
          </mxGeometry>
        </mxCell>
        <mxCell id="XogMgEZH332ViA2TbceF-254" value="Base de datos" style="text;html=1;strokeColor=default;fillColor=none;align=center;verticalAlign=middle;whiteSpace=wrap;rounded=0;" vertex="1" parent="1">
          <mxGeometry x="385" y="3952.5" width="60" height="30" as="geometry" />
        </mxCell>
        <mxCell id="XogMgEZH332ViA2TbceF-256" value="" style="endArrow=none;dashed=1;html=1;rounded=0;fontSize=11;entryX=0.5;entryY=1;entryDx=0;entryDy=0;exitX=0.5;exitY=0;exitDx=0;exitDy=0;" edge="1" parent="1" source="XogMgEZH332ViA2TbceF-247" target="XogMgEZH332ViA2TbceF-245">
          <mxGeometry width="50" height="50" relative="1" as="geometry">
            <mxPoint x="358.75" y="4170" as="sourcePoint" />
            <mxPoint x="408.75" y="4120" as="targetPoint" />
          </mxGeometry>
        </mxCell>
        <mxCell id="XogMgEZH332ViA2TbceF-264" value="Programa" style="text;html=1;strokeColor=default;fillColor=default;align=center;verticalAlign=middle;whiteSpace=wrap;rounded=0;" vertex="1" parent="1">
          <mxGeometry x="655.5" y="3952.5" width="60" height="30" as="geometry" />
        </mxCell>
        <mxCell id="XogMgEZH332ViA2TbceF-265" value="&lt;span style=&quot;font-size: 11px;&quot;&gt;JUGAR&lt;/span&gt;" style="text;html=1;strokeColor=none;fillColor=none;align=center;verticalAlign=middle;whiteSpace=wrap;rounded=0;" vertex="1" parent="1">
          <mxGeometry x="277.5" y="3890" width="130" height="40" as="geometry" />
        </mxCell>
        <mxCell id="XogMgEZH332ViA2TbceF-283" value="" style="group" vertex="1" connectable="0" parent="1">
          <mxGeometry x="270" y="4052" width="20.019999999999982" height="40" as="geometry" />
        </mxCell>
        <mxCell id="XogMgEZH332ViA2TbceF-284" value="" style="endArrow=none;dashed=1;html=1;rounded=0;entryX=0.5;entryY=1;entryDx=0;entryDy=0;" edge="1" parent="XogMgEZH332ViA2TbceF-283" target="XogMgEZH332ViA2TbceF-247">
          <mxGeometry width="50" height="50" relative="1" as="geometry">
            <mxPoint x="10.019999999999982" y="30" as="sourcePoint" />
            <mxPoint x="9.519999999999982" as="targetPoint" />
          </mxGeometry>
        </mxCell>
        <mxCell id="XogMgEZH332ViA2TbceF-285" value="" style="endArrow=none;html=1;rounded=0;" edge="1" parent="XogMgEZH332ViA2TbceF-283">
          <mxGeometry width="50" height="50" relative="1" as="geometry">
            <mxPoint x="20.019999999999982" y="40" as="sourcePoint" />
            <mxPoint x="0.01999999999998181" y="20" as="targetPoint" />
          </mxGeometry>
        </mxCell>
        <mxCell id="XogMgEZH332ViA2TbceF-286" value="" style="endArrow=none;html=1;rounded=0;" edge="1" parent="XogMgEZH332ViA2TbceF-283">
          <mxGeometry width="50" height="50" relative="1" as="geometry">
            <mxPoint y="40" as="sourcePoint" />
            <mxPoint x="20" y="20" as="targetPoint" />
          </mxGeometry>
        </mxCell>
        <mxCell id="XogMgEZH332ViA2TbceF-287" value="SelecciÃ³n de equipo" style="text;html=1;strokeColor=default;fillColor=none;align=center;verticalAlign=middle;whiteSpace=wrap;rounded=0;" vertex="1" parent="1">
          <mxGeometry x="526.25" y="3950" width="68.75" height="40" as="geometry" />
        </mxCell>
        <mxCell id="XogMgEZH332ViA2TbceF-288" value="" style="rounded=1;whiteSpace=wrap;html=1;" vertex="1" parent="1">
          <mxGeometry x="410" y="4009.5" width="10" height="50.5" as="geometry" />
        </mxCell>
        <mxCell id="XogMgEZH332ViA2TbceF-289" value="" style="endArrow=none;dashed=1;html=1;rounded=0;entryX=0.5;entryY=1;entryDx=0;entryDy=0;exitX=0.5;exitY=0;exitDx=0;exitDy=0;" edge="1" parent="1" source="XogMgEZH332ViA2TbceF-288" target="XogMgEZH332ViA2TbceF-254">
          <mxGeometry width="50" height="50" relative="1" as="geometry">
            <mxPoint x="360" y="4077.5" as="sourcePoint" />
            <mxPoint x="410" y="4027.5" as="targetPoint" />
          </mxGeometry>
        </mxCell>
        <mxCell id="XogMgEZH332ViA2TbceF-292" value="" style="endArrow=classic;html=1;rounded=0;exitX=1;exitY=0.5;exitDx=0;exitDy=0;entryX=-0.292;entryY=0.017;entryDx=0;entryDy=0;entryPerimeter=0;" edge="1" parent="1" source="XogMgEZH332ViA2TbceF-288" target="XogMgEZH332ViA2TbceF-298">
          <mxGeometry width="50" height="50" relative="1" as="geometry">
            <mxPoint x="380" y="4080" as="sourcePoint" />
            <mxPoint x="670" y="4032" as="targetPoint" />
          </mxGeometry>
        </mxCell>
        <mxCell id="XogMgEZH332ViA2TbceF-293" value="&lt;span style=&quot;font-size: 11px;&quot;&gt;Equipo enemigo cargado&lt;/span&gt;" style="text;html=1;strokeColor=none;fillColor=none;align=center;verticalAlign=middle;whiteSpace=wrap;rounded=0;" vertex="1" parent="1">
          <mxGeometry x="442.5" y="3990" width="90" height="40" as="geometry" />
        </mxCell>
        <mxCell id="XogMgEZH332ViA2TbceF-294" value="" style="endArrow=none;dashed=1;html=1;rounded=0;entryX=0.5;entryY=1;entryDx=0;entryDy=0;exitX=0.5;exitY=0;exitDx=0;exitDy=0;" edge="1" parent="1" source="XogMgEZH332ViA2TbceF-295" target="XogMgEZH332ViA2TbceF-287">
          <mxGeometry width="50" height="50" relative="1" as="geometry">
            <mxPoint x="561" y="4020" as="sourcePoint" />
            <mxPoint x="430" y="4030" as="targetPoint" />
          </mxGeometry>
        </mxCell>
        <mxCell id="XogMgEZH332ViA2TbceF-295" value="" style="rounded=0;whiteSpace=wrap;html=1;" vertex="1" parent="1">
          <mxGeometry x="555.62" y="4057" width="10" height="70" as="geometry" />
        </mxCell>
        <mxCell id="XogMgEZH332ViA2TbceF-296" value="" style="rounded=0;whiteSpace=wrap;html=1;" vertex="1" parent="1">
          <mxGeometry x="410" y="4091.5" width="10" height="68.5" as="geometry" />
        </mxCell>
        <mxCell id="XogMgEZH332ViA2TbceF-297" value="" style="endArrow=none;dashed=1;html=1;rounded=0;entryX=0.5;entryY=1;entryDx=0;entryDy=0;exitX=0.5;exitY=0;exitDx=0;exitDy=0;" edge="1" parent="1" source="XogMgEZH332ViA2TbceF-298" target="XogMgEZH332ViA2TbceF-264">
          <mxGeometry width="50" height="50" relative="1" as="geometry">
            <mxPoint x="686" y="4010" as="sourcePoint" />
            <mxPoint x="430" y="4030" as="targetPoint" />
          </mxGeometry>
        </mxCell>
        <mxCell id="XogMgEZH332ViA2TbceF-298" value="" style="rounded=0;whiteSpace=wrap;html=1;" vertex="1" parent="1">
          <mxGeometry x="680.5" y="4020" width="10" height="840" as="geometry" />
        </mxCell>
        <mxCell id="XogMgEZH332ViA2TbceF-299" value="" style="endArrow=classic;html=1;rounded=0;exitX=0;exitY=0.75;exitDx=0;exitDy=0;entryX=1;entryY=0.25;entryDx=0;entryDy=0;" edge="1" parent="1" source="XogMgEZH332ViA2TbceF-295" target="XogMgEZH332ViA2TbceF-296">
          <mxGeometry width="50" height="50" relative="1" as="geometry">
            <mxPoint x="380" y="4180" as="sourcePoint" />
            <mxPoint x="430" y="4130" as="targetPoint" />
          </mxGeometry>
        </mxCell>
        <mxCell id="XogMgEZH332ViA2TbceF-300" value="" style="endArrow=none;dashed=1;html=1;rounded=0;entryX=0.5;entryY=1;entryDx=0;entryDy=0;exitX=0.5;exitY=0;exitDx=0;exitDy=0;" edge="1" parent="1" source="XogMgEZH332ViA2TbceF-296" target="XogMgEZH332ViA2TbceF-288">
          <mxGeometry width="50" height="50" relative="1" as="geometry">
            <mxPoint x="380" y="4180" as="sourcePoint" />
            <mxPoint x="430" y="4130" as="targetPoint" />
          </mxGeometry>
        </mxCell>
        <mxCell id="XogMgEZH332ViA2TbceF-301" value="&lt;span style=&quot;font-size: 11px;&quot;&gt;Seleccionar jugador 1&lt;/span&gt;" style="text;html=1;strokeColor=none;fillColor=none;align=center;verticalAlign=middle;whiteSpace=wrap;rounded=0;" vertex="1" parent="1">
          <mxGeometry x="449" y="4070" width="90" height="40" as="geometry" />
        </mxCell>
        <mxCell id="XogMgEZH332ViA2TbceF-302" value="" style="endArrow=classic;html=1;rounded=0;exitX=1.074;exitY=0.877;exitDx=0;exitDy=0;exitPerimeter=0;" edge="1" parent="1" source="XogMgEZH332ViA2TbceF-296">
          <mxGeometry width="50" height="50" relative="1" as="geometry">
            <mxPoint x="380" y="4180" as="sourcePoint" />
            <mxPoint x="680" y="4150" as="targetPoint" />
          </mxGeometry>
        </mxCell>
        <mxCell id="XogMgEZH332ViA2TbceF-303" value="&lt;span style=&quot;font-size: 11px;&quot;&gt;Calcular diferencia entre jugador 1 y enemigo 1&lt;/span&gt;" style="text;html=1;strokeColor=none;fillColor=none;align=center;verticalAlign=middle;whiteSpace=wrap;rounded=0;" vertex="1" parent="1">
          <mxGeometry x="580" y="4092" width="94.5" height="44.25" as="geometry" />
        </mxCell>
        <mxCell id="XogMgEZH332ViA2TbceF-304" value="" style="rounded=0;whiteSpace=wrap;html=1;" vertex="1" parent="1">
          <mxGeometry x="556.12" y="4190" width="10" height="70" as="geometry" />
        </mxCell>
        <mxCell id="XogMgEZH332ViA2TbceF-305" value="" style="rounded=0;whiteSpace=wrap;html=1;" vertex="1" parent="1">
          <mxGeometry x="410.5" y="4224.5" width="10" height="68.5" as="geometry" />
        </mxCell>
        <mxCell id="XogMgEZH332ViA2TbceF-306" value="" style="endArrow=classic;html=1;rounded=0;exitX=0;exitY=0.75;exitDx=0;exitDy=0;entryX=1;entryY=0.25;entryDx=0;entryDy=0;" edge="1" parent="1" source="XogMgEZH332ViA2TbceF-304" target="XogMgEZH332ViA2TbceF-305">
          <mxGeometry width="50" height="50" relative="1" as="geometry">
            <mxPoint x="380.5" y="4313" as="sourcePoint" />
            <mxPoint x="430.5" y="4263" as="targetPoint" />
          </mxGeometry>
        </mxCell>
        <mxCell id="XogMgEZH332ViA2TbceF-307" value="" style="endArrow=none;dashed=1;html=1;rounded=0;entryX=0.5;entryY=1;entryDx=0;entryDy=0;exitX=0.5;exitY=0;exitDx=0;exitDy=0;" edge="1" parent="1" source="XogMgEZH332ViA2TbceF-305" target="XogMgEZH332ViA2TbceF-296">
          <mxGeometry width="50" height="50" relative="1" as="geometry">
            <mxPoint x="380.5" y="4313" as="sourcePoint" />
            <mxPoint x="415.5" y="4193" as="targetPoint" />
          </mxGeometry>
        </mxCell>
        <mxCell id="XogMgEZH332ViA2TbceF-308" value="&lt;span style=&quot;font-size: 11px;&quot;&gt;Seleccionar jugador 2&lt;/span&gt;" style="text;html=1;strokeColor=none;fillColor=none;align=center;verticalAlign=middle;whiteSpace=wrap;rounded=0;" vertex="1" parent="1">
          <mxGeometry x="449.5" y="4203" width="90" height="40" as="geometry" />
        </mxCell>
        <mxCell id="XogMgEZH332ViA2TbceF-309" value="" style="endArrow=classic;html=1;rounded=0;exitX=1.074;exitY=0.877;exitDx=0;exitDy=0;exitPerimeter=0;" edge="1" parent="1" source="XogMgEZH332ViA2TbceF-305">
          <mxGeometry width="50" height="50" relative="1" as="geometry">
            <mxPoint x="380.5" y="4313" as="sourcePoint" />
            <mxPoint x="680.5" y="4283" as="targetPoint" />
          </mxGeometry>
        </mxCell>
        <mxCell id="XogMgEZH332ViA2TbceF-310" value="&lt;span style=&quot;font-size: 11px;&quot;&gt;Calcular diferencia entre jugador 2 y enemigo 2&lt;/span&gt;" style="text;html=1;strokeColor=none;fillColor=none;align=center;verticalAlign=middle;whiteSpace=wrap;rounded=0;" vertex="1" parent="1">
          <mxGeometry x="570" y="4243" width="109.5" height="37" as="geometry" />
        </mxCell>
        <mxCell id="XogMgEZH332ViA2TbceF-311" value="" style="rounded=0;whiteSpace=wrap;html=1;" vertex="1" parent="1">
          <mxGeometry x="555.62" y="4340" width="10" height="70" as="geometry" />
        </mxCell>
        <mxCell id="XogMgEZH332ViA2TbceF-312" value="" style="rounded=0;whiteSpace=wrap;html=1;" vertex="1" parent="1">
          <mxGeometry x="410" y="4374.5" width="10" height="68.5" as="geometry" />
        </mxCell>
        <mxCell id="XogMgEZH332ViA2TbceF-313" value="" style="endArrow=classic;html=1;rounded=0;exitX=0;exitY=0.75;exitDx=0;exitDy=0;entryX=1;entryY=0.25;entryDx=0;entryDy=0;" edge="1" parent="1" source="XogMgEZH332ViA2TbceF-311" target="XogMgEZH332ViA2TbceF-312">
          <mxGeometry width="50" height="50" relative="1" as="geometry">
            <mxPoint x="380" y="4463" as="sourcePoint" />
            <mxPoint x="430" y="4413" as="targetPoint" />
          </mxGeometry>
        </mxCell>
        <mxCell id="XogMgEZH332ViA2TbceF-314" value="" style="endArrow=none;dashed=1;html=1;rounded=0;entryX=0.5;entryY=1;entryDx=0;entryDy=0;exitX=0.5;exitY=0;exitDx=0;exitDy=0;" edge="1" parent="1" source="XogMgEZH332ViA2TbceF-312" target="XogMgEZH332ViA2TbceF-305">
          <mxGeometry width="50" height="50" relative="1" as="geometry">
            <mxPoint x="380" y="4463" as="sourcePoint" />
            <mxPoint x="415" y="4343" as="targetPoint" />
          </mxGeometry>
        </mxCell>
        <mxCell id="XogMgEZH332ViA2TbceF-315" value="&lt;span style=&quot;font-size: 11px;&quot;&gt;Seleccionar jugador 3&lt;/span&gt;" style="text;html=1;strokeColor=none;fillColor=none;align=center;verticalAlign=middle;whiteSpace=wrap;rounded=0;" vertex="1" parent="1">
          <mxGeometry x="449" y="4353" width="90" height="40" as="geometry" />
        </mxCell>
        <mxCell id="XogMgEZH332ViA2TbceF-316" value="" style="endArrow=classic;html=1;rounded=0;exitX=1.074;exitY=0.877;exitDx=0;exitDy=0;exitPerimeter=0;" edge="1" parent="1" source="XogMgEZH332ViA2TbceF-312">
          <mxGeometry width="50" height="50" relative="1" as="geometry">
            <mxPoint x="380" y="4463" as="sourcePoint" />
            <mxPoint x="680" y="4433" as="targetPoint" />
          </mxGeometry>
        </mxCell>
        <mxCell id="XogMgEZH332ViA2TbceF-317" value="&lt;span style=&quot;font-size: 11px;&quot;&gt;Calcular diferencia entre jugador 3 y enemigo 3&lt;/span&gt;" style="text;html=1;strokeColor=none;fillColor=none;align=center;verticalAlign=middle;whiteSpace=wrap;rounded=0;" vertex="1" parent="1">
          <mxGeometry x="574.5" y="4385.25" width="100" height="47" as="geometry" />
        </mxCell>
        <mxCell id="XogMgEZH332ViA2TbceF-318" value="" style="rounded=0;whiteSpace=wrap;html=1;" vertex="1" parent="1">
          <mxGeometry x="556.12" y="4490" width="10" height="70" as="geometry" />
        </mxCell>
        <mxCell id="XogMgEZH332ViA2TbceF-319" value="" style="rounded=0;whiteSpace=wrap;html=1;" vertex="1" parent="1">
          <mxGeometry x="410.5" y="4524.5" width="10" height="68.5" as="geometry" />
        </mxCell>
        <mxCell id="XogMgEZH332ViA2TbceF-320" value="" style="endArrow=classic;html=1;rounded=0;exitX=0;exitY=0.75;exitDx=0;exitDy=0;entryX=1;entryY=0.25;entryDx=0;entryDy=0;" edge="1" parent="1" source="XogMgEZH332ViA2TbceF-318" target="XogMgEZH332ViA2TbceF-319">
          <mxGeometry width="50" height="50" relative="1" as="geometry">
            <mxPoint x="380.5" y="4613" as="sourcePoint" />
            <mxPoint x="430.5" y="4563" as="targetPoint" />
          </mxGeometry>
        </mxCell>
        <mxCell id="XogMgEZH332ViA2TbceF-321" value="" style="endArrow=none;dashed=1;html=1;rounded=0;entryX=0.5;entryY=1;entryDx=0;entryDy=0;exitX=0.5;exitY=0;exitDx=0;exitDy=0;" edge="1" parent="1" source="XogMgEZH332ViA2TbceF-319" target="XogMgEZH332ViA2TbceF-312">
          <mxGeometry width="50" height="50" relative="1" as="geometry">
            <mxPoint x="380.5" y="4613" as="sourcePoint" />
            <mxPoint x="415.5" y="4493" as="targetPoint" />
          </mxGeometry>
        </mxCell>
        <mxCell id="XogMgEZH332ViA2TbceF-322" value="&lt;span style=&quot;font-size: 11px;&quot;&gt;Seleccionar jugador 4&lt;/span&gt;" style="text;html=1;strokeColor=none;fillColor=none;align=center;verticalAlign=middle;whiteSpace=wrap;rounded=0;" vertex="1" parent="1">
          <mxGeometry x="449.5" y="4503" width="90" height="40" as="geometry" />
        </mxCell>
        <mxCell id="XogMgEZH332ViA2TbceF-323" value="" style="endArrow=classic;html=1;rounded=0;exitX=1.074;exitY=0.877;exitDx=0;exitDy=0;exitPerimeter=0;" edge="1" parent="1" source="XogMgEZH332ViA2TbceF-319">
          <mxGeometry width="50" height="50" relative="1" as="geometry">
            <mxPoint x="380.5" y="4613" as="sourcePoint" />
            <mxPoint x="680.5" y="4583" as="targetPoint" />
          </mxGeometry>
        </mxCell>
        <mxCell id="XogMgEZH332ViA2TbceF-324" value="&lt;span style=&quot;font-size: 11px;&quot;&gt;Calcular diferencia entre jugador 4 y enemigo 4&lt;/span&gt;" style="text;html=1;strokeColor=none;fillColor=none;align=center;verticalAlign=middle;whiteSpace=wrap;rounded=0;" vertex="1" parent="1">
          <mxGeometry x="575.75" y="4530" width="99.5" height="47" as="geometry" />
        </mxCell>
        <mxCell id="XogMgEZH332ViA2TbceF-325" value="" style="rounded=0;whiteSpace=wrap;html=1;" vertex="1" parent="1">
          <mxGeometry x="556.12" y="4640" width="10" height="70" as="geometry" />
        </mxCell>
        <mxCell id="XogMgEZH332ViA2TbceF-326" value="" style="rounded=0;whiteSpace=wrap;html=1;" vertex="1" parent="1">
          <mxGeometry x="410.5" y="4674.5" width="10" height="68.5" as="geometry" />
        </mxCell>
        <mxCell id="XogMgEZH332ViA2TbceF-327" value="" style="endArrow=classic;html=1;rounded=0;exitX=0;exitY=0.75;exitDx=0;exitDy=0;entryX=1;entryY=0.25;entryDx=0;entryDy=0;" edge="1" parent="1" source="XogMgEZH332ViA2TbceF-325" target="XogMgEZH332ViA2TbceF-326">
          <mxGeometry width="50" height="50" relative="1" as="geometry">
            <mxPoint x="380.5" y="4763" as="sourcePoint" />
            <mxPoint x="430.5" y="4713" as="targetPoint" />
          </mxGeometry>
        </mxCell>
        <mxCell id="XogMgEZH332ViA2TbceF-328" value="" style="endArrow=none;dashed=1;html=1;rounded=0;entryX=0.5;entryY=1;entryDx=0;entryDy=0;exitX=0.5;exitY=0;exitDx=0;exitDy=0;" edge="1" parent="1" source="XogMgEZH332ViA2TbceF-326" target="XogMgEZH332ViA2TbceF-319">
          <mxGeometry width="50" height="50" relative="1" as="geometry">
            <mxPoint x="380.5" y="4763" as="sourcePoint" />
            <mxPoint x="415.5" y="4643" as="targetPoint" />
          </mxGeometry>
        </mxCell>
        <mxCell id="XogMgEZH332ViA2TbceF-329" value="&lt;span style=&quot;font-size: 11px;&quot;&gt;Seleccionar jugador 5&lt;/span&gt;" style="text;html=1;strokeColor=none;fillColor=none;align=center;verticalAlign=middle;whiteSpace=wrap;rounded=0;" vertex="1" parent="1">
          <mxGeometry x="449.5" y="4653" width="90" height="40" as="geometry" />
        </mxCell>
        <mxCell id="XogMgEZH332ViA2TbceF-330" value="" style="endArrow=classic;html=1;rounded=0;exitX=1.074;exitY=0.877;exitDx=0;exitDy=0;exitPerimeter=0;" edge="1" parent="1" source="XogMgEZH332ViA2TbceF-326">
          <mxGeometry width="50" height="50" relative="1" as="geometry">
            <mxPoint x="380.5" y="4763" as="sourcePoint" />
            <mxPoint x="680.5" y="4733" as="targetPoint" />
          </mxGeometry>
        </mxCell>
        <mxCell id="XogMgEZH332ViA2TbceF-331" value="&lt;span style=&quot;font-size: 11px;&quot;&gt;Calcular diferencia entre jugador 5 y enemigo 5&lt;/span&gt;" style="text;html=1;strokeColor=none;fillColor=none;align=center;verticalAlign=middle;whiteSpace=wrap;rounded=0;" vertex="1" parent="1">
          <mxGeometry x="574.5" y="4670" width="99.5" height="57" as="geometry" />
        </mxCell>
        <mxCell id="XogMgEZH332ViA2TbceF-333" value="" style="endArrow=none;dashed=1;html=1;rounded=0;entryX=0.5;entryY=1;entryDx=0;entryDy=0;exitX=0.5;exitY=0;exitDx=0;exitDy=0;" edge="1" parent="1" source="XogMgEZH332ViA2TbceF-304" target="XogMgEZH332ViA2TbceF-295">
          <mxGeometry width="50" height="50" relative="1" as="geometry">
            <mxPoint x="380" y="4280" as="sourcePoint" />
            <mxPoint x="430" y="4230" as="targetPoint" />
          </mxGeometry>
        </mxCell>
        <mxCell id="XogMgEZH332ViA2TbceF-334" value="" style="endArrow=none;dashed=1;html=1;rounded=0;exitX=0.5;exitY=0;exitDx=0;exitDy=0;entryX=0.5;entryY=1;entryDx=0;entryDy=0;" edge="1" parent="1" source="XogMgEZH332ViA2TbceF-311" target="XogMgEZH332ViA2TbceF-304">
          <mxGeometry width="50" height="50" relative="1" as="geometry">
            <mxPoint x="380" y="4280" as="sourcePoint" />
            <mxPoint x="570" y="4260" as="targetPoint" />
          </mxGeometry>
        </mxCell>
        <mxCell id="XogMgEZH332ViA2TbceF-335" value="" style="endArrow=none;dashed=1;html=1;rounded=0;entryX=0.5;entryY=1;entryDx=0;entryDy=0;exitX=0.5;exitY=0;exitDx=0;exitDy=0;" edge="1" parent="1" source="XogMgEZH332ViA2TbceF-318" target="XogMgEZH332ViA2TbceF-311">
          <mxGeometry width="50" height="50" relative="1" as="geometry">
            <mxPoint x="380" y="4490" as="sourcePoint" />
            <mxPoint x="430" y="4440" as="targetPoint" />
          </mxGeometry>
        </mxCell>
        <mxCell id="XogMgEZH332ViA2TbceF-336" value="" style="endArrow=none;dashed=1;html=1;rounded=0;entryX=0.5;entryY=1;entryDx=0;entryDy=0;exitX=0.5;exitY=0;exitDx=0;exitDy=0;" edge="1" parent="1" source="XogMgEZH332ViA2TbceF-325" target="XogMgEZH332ViA2TbceF-318">
          <mxGeometry width="50" height="50" relative="1" as="geometry">
            <mxPoint x="571" y="4500" as="sourcePoint" />
            <mxPoint x="571" y="4420" as="targetPoint" />
          </mxGeometry>
        </mxCell>
        <mxCell id="XogMgEZH332ViA2TbceF-337" value="" style="rounded=0;whiteSpace=wrap;html=1;" vertex="1" parent="1">
          <mxGeometry x="410.5" y="4820" width="10" height="40" as="geometry" />
        </mxCell>
        <mxCell id="XogMgEZH332ViA2TbceF-338" value="" style="endArrow=none;dashed=1;html=1;rounded=0;exitX=0.5;exitY=0;exitDx=0;exitDy=0;entryX=0.5;entryY=1;entryDx=0;entryDy=0;" edge="1" parent="1" source="XogMgEZH332ViA2TbceF-337" target="XogMgEZH332ViA2TbceF-326">
          <mxGeometry width="50" height="50" relative="1" as="geometry">
            <mxPoint x="380" y="4700" as="sourcePoint" />
            <mxPoint x="430" y="4650" as="targetPoint" />
          </mxGeometry>
        </mxCell>
        <mxCell id="XogMgEZH332ViA2TbceF-339" value="" style="group" vertex="1" connectable="0" parent="1">
          <mxGeometry x="405.49" y="4880" width="20.019999999999982" height="40" as="geometry" />
        </mxCell>
        <mxCell id="XogMgEZH332ViA2TbceF-340" value="" style="endArrow=none;dashed=1;html=1;rounded=0;entryX=0.5;entryY=1;entryDx=0;entryDy=0;" edge="1" parent="XogMgEZH332ViA2TbceF-339" target="XogMgEZH332ViA2TbceF-337">
          <mxGeometry width="50" height="50" relative="1" as="geometry">
            <mxPoint x="10.019999999999982" y="30" as="sourcePoint" />
            <mxPoint x="9.519999999999982" as="targetPoint" />
          </mxGeometry>
        </mxCell>
        <mxCell id="XogMgEZH332ViA2TbceF-341" value="" style="endArrow=none;html=1;rounded=0;" edge="1" parent="XogMgEZH332ViA2TbceF-339">
          <mxGeometry width="50" height="50" relative="1" as="geometry">
            <mxPoint x="20.019999999999982" y="40" as="sourcePoint" />
            <mxPoint x="0.01999999999998181" y="20" as="targetPoint" />
          </mxGeometry>
        </mxCell>
        <mxCell id="XogMgEZH332ViA2TbceF-342" value="" style="endArrow=none;html=1;rounded=0;" edge="1" parent="XogMgEZH332ViA2TbceF-339">
          <mxGeometry width="50" height="50" relative="1" as="geometry">
            <mxPoint y="40" as="sourcePoint" />
            <mxPoint x="20" y="20" as="targetPoint" />
          </mxGeometry>
        </mxCell>
        <mxCell id="XogMgEZH332ViA2TbceF-343" value="" style="group" vertex="1" connectable="0" parent="1">
          <mxGeometry x="675.49" y="4870" width="20.019999999999982" height="40" as="geometry" />
        </mxCell>
        <mxCell id="XogMgEZH332ViA2TbceF-344" value="" style="endArrow=none;dashed=1;html=1;rounded=0;entryX=0.5;entryY=1;entryDx=0;entryDy=0;" edge="1" parent="XogMgEZH332ViA2TbceF-343" target="XogMgEZH332ViA2TbceF-298">
          <mxGeometry width="50" height="50" relative="1" as="geometry">
            <mxPoint x="10.019999999999982" y="30" as="sourcePoint" />
            <mxPoint x="9.519999999999982" as="targetPoint" />
          </mxGeometry>
        </mxCell>
        <mxCell id="XogMgEZH332ViA2TbceF-345" value="" style="endArrow=none;html=1;rounded=0;" edge="1" parent="XogMgEZH332ViA2TbceF-343">
          <mxGeometry width="50" height="50" relative="1" as="geometry">
            <mxPoint x="20.019999999999982" y="40" as="sourcePoint" />
            <mxPoint x="0.01999999999998181" y="20" as="targetPoint" />
          </mxGeometry>
        </mxCell>
        <mxCell id="XogMgEZH332ViA2TbceF-346" value="" style="endArrow=none;html=1;rounded=0;" edge="1" parent="XogMgEZH332ViA2TbceF-343">
          <mxGeometry width="50" height="50" relative="1" as="geometry">
            <mxPoint y="40" as="sourcePoint" />
            <mxPoint x="20" y="20" as="targetPoint" />
          </mxGeometry>
        </mxCell>
        <mxCell id="XogMgEZH332ViA2TbceF-347" value="" style="endArrow=classic;html=1;rounded=0;entryX=1;entryY=0.5;entryDx=0;entryDy=0;" edge="1" parent="1" target="XogMgEZH332ViA2TbceF-337">
          <mxGeometry width="50" height="50" relative="1" as="geometry">
            <mxPoint x="680" y="4840" as="sourcePoint" />
            <mxPoint x="430" y="4760" as="targetPoint" />
          </mxGeometry>
        </mxCell>
        <mxCell id="XogMgEZH332ViA2TbceF-348" value="&lt;span style=&quot;font-size: 11px;&quot;&gt;Guardar resultado final en estadisticas&lt;/span&gt;" style="text;html=1;strokeColor=none;fillColor=none;align=center;verticalAlign=middle;whiteSpace=wrap;rounded=0;" vertex="1" parent="1">
          <mxGeometry x="505" y="4800" width="105" height="40" as="geometry" />
        </mxCell>
      </root>
    </mxGraphModel>
  </diagram>
</mxfile>
